<svg width="321" height="227" viewBox="0 0 321 227" fill="none" xmlns="http://www.w3.org/2000/svg">
<path opacity="0.1" d="M106.887 226.54C122.471 226.54 135.104 224.511 135.104 222.008C135.104 219.505 122.471 217.476 106.887 217.476C91.3031 217.476 78.6699 219.505 78.6699 222.008C78.6699 224.511 91.3031 226.54 106.887 226.54Z" fill="#5ABDDA"/>
<path opacity="0.1" d="M260.27 226.668C279.716 226.668 295.48 224.639 295.48 222.136C295.48 219.633 279.716 217.604 260.27 217.604C240.824 217.604 225.06 219.633 225.06 222.136C225.06 224.639 240.824 226.668 260.27 226.668Z" fill="#5ABDDA"/>
<path opacity="0.1" d="M4.50761 97.9367H33.8973V137.995H6.6592C6.58681 138.406 6.51731 138.82 6.44201 139.234H33.8973V171.54C33.8481 171.525 33.8046 171.508 33.7583 171.491C32.9822 171.184 32.2119 170.859 31.4417 170.512L30.9494 170.289C30.1771 169.924 29.4049 169.538 28.6327 169.131C28.3634 168.989 28.0941 168.841 27.8277 168.69C23.5406 166.289 19.6461 163.246 16.2791 159.667C16.1807 159.571 16.088 159.47 15.9895 159.377C15.5204 158.868 15.06 158.352 14.614 157.825L14.1217 157.246C13.5947 156.6 13.085 155.937 12.5898 155.265C12.5175 155.167 12.448 155.068 12.3727 154.976C10.3588 152.183 8.68657 149.16 7.39184 145.97C7.3513 145.874 7.31655 145.77 7.27891 145.68C6.88121 144.657 6.52889 143.624 6.22193 142.582C6.08872 142.144 5.96131 141.713 5.85127 141.258C5.81073 141.125 5.77597 140.995 5.74412 140.864C4.09929 134.444 3.90527 127.775 3.90527 121.153C3.90527 120.379 3.90527 119.603 3.90527 118.836C3.90527 116.157 3.93713 113.461 3.98346 110.768C3.98346 110.07 4.01242 109.375 4.0269 108.674C4.06744 106.896 4.12536 105.118 4.20065 103.34C4.21802 102.845 4.24119 102.353 4.26725 101.861C4.26725 101.577 4.28173 101.293 4.31069 101.009C4.38019 99.9783 4.43811 98.956 4.50761 97.9367Z" fill="#5ABDDA"/>
<path opacity="0.1" d="M33.8974 53.3353H17.7764C20.3969 49.2336 23.2602 45.2921 26.3509 41.5319C28.7457 38.5897 31.2738 35.7229 33.8974 32.9603V53.3353Z" fill="#5ABDDA"/>
<path opacity="0.1" d="M33.8976 54.5746V96.6973H4.60059C4.60059 96.5757 4.62086 96.4511 4.62954 96.3295C4.65561 95.9965 4.68167 95.6635 4.71063 95.3334C4.74248 94.9453 4.77723 94.5544 4.81488 94.175C4.85252 93.7957 4.89306 93.3323 4.9365 92.9124C4.97994 92.4926 5.02048 92.0669 5.06971 91.647C5.11894 91.2271 5.16238 90.8072 5.2145 90.3902C5.26662 89.9732 5.31296 89.5504 5.36798 89.1334C5.41142 88.7859 5.45775 88.4413 5.50408 88.0938C5.57069 87.6044 5.64019 87.1121 5.71548 86.6256C5.71548 86.5532 5.73575 86.4779 5.74733 86.4084C6.27587 82.847 6.99605 79.3167 7.90472 75.8329C8.85588 72.1783 10.0705 68.5974 11.539 65.1183C13.0997 61.4788 14.9271 57.9595 17.0063 54.5891L33.8976 54.5746Z" fill="#5ABDDA"/>
<path opacity="0.1" d="M40.9141 97.9338V137.995H103.687V97.9338H40.9141ZM40.9141 139.231V173.634C41.2731 173.709 41.6293 173.781 41.9826 173.842C42.4633 173.935 42.9411 174.019 43.4305 174.091C43.5232 174.106 43.6188 174.12 43.7201 174.129C43.9112 174.161 44.1082 174.187 44.2993 174.213C44.7829 174.279 45.2636 174.334 45.7472 174.378C45.976 174.401 46.2076 174.421 46.4393 174.439L46.9982 174.482C47.3022 174.505 47.6034 174.523 47.9017 174.531C48.087 174.531 48.2723 174.549 48.4635 174.554C48.6083 174.554 48.7531 174.554 48.9036 174.554C49.0542 174.554 49.2685 174.554 49.4509 174.554C49.7 174.554 49.949 174.554 50.1952 174.554H50.5282C50.7772 174.554 51.0263 174.554 51.2724 174.531H51.2898C51.4606 174.531 51.6344 174.531 51.8081 174.508C51.8564 174.511 51.9047 174.511 51.9529 174.508C52.0977 174.508 52.2425 174.508 52.3815 174.488H52.4829L53.453 174.413C53.7715 174.384 54.0929 174.346 54.4173 174.311L55.0775 174.233C57.7636 173.857 60.4199 173.291 63.0266 172.542C68.8819 170.909 74.6099 168.624 80.4623 166.95C88.0291 164.793 96.3893 163.733 103.701 166.371V139.231H40.9141ZM103.687 53.3353V0.00290473C96.8143 -0.0715537 89.9604 0.73227 83.2915 2.39486C67.3964 6.38819 53.1344 15.0496 40.9141 26.1116V53.3324H44.0647V54.5689H40.9141V96.6973H103.687V54.5718H57.0004V53.3353H103.687ZM184.315 35.3204C180.383 35.1814 176.473 33.9362 172.938 32.0133C166.176 28.3356 160.775 22.6569 154.74 17.8643C142.201 7.88244 126.651 1.85913 110.698 0.364883V53.3353H200.309L200.532 53.1007L184.315 35.3204ZM192.479 33.8725L201.134 43.3707V31.382C198.235 31.7411 195.696 32.5954 192.49 33.8609L192.479 33.8725ZM201.134 182.176V139.231H182.691C182.641 139.049 182.592 138.863 182.534 138.678C182.589 138.863 182.636 139.049 182.688 139.231H110.709V170.289C111.393 170.796 112.067 171.328 112.736 171.87C113.457 172.449 114.17 173.06 114.885 173.66L115.606 174.256C115.951 174.546 116.298 174.835 116.648 175.108C117.343 175.671 118.045 176.227 118.754 176.776C119.104 177.065 119.463 177.326 119.819 177.598C125.474 181.921 131.439 185.823 137.666 189.271C139.062 190.043 140.471 190.797 141.891 191.533C142.838 192.016 143.791 192.497 144.747 192.963C146.183 193.664 147.631 194.34 149.09 194.99C162.546 201.03 176.775 205.175 191.369 207.306C194.611 207.785 197.865 208.161 201.131 208.436V182.173H201.421L201.134 182.176ZM110.709 54.5718V96.6973H201.146V54.5718H110.709ZM110.709 97.9338V137.995H201.146V97.9338H110.709ZM208.165 31.3299V44.7028L219.213 32.5809C215.552 31.9902 211.87 31.5683 208.165 31.3154V31.3299ZM208.165 97.9483V137.995H296.126V97.9338L208.165 97.9483ZM295.804 185.356L296.114 139.231H208.165V208.896C213.831 209.134 219.505 209.066 225.164 208.693H225.262C227.965 208.523 230.655 208.276 233.333 207.952H233.394C247.679 206.289 261.647 202.562 274.862 196.887M313.087 104.531C312.757 103.752 312.412 102.978 312.062 102.214C311.407 100.766 310.715 99.3586 310.003 97.9512H303.139V137.995H320.491C320.483 126.655 317.613 115.071 313.095 104.516L313.087 104.531ZM303.139 139.246V178.918C308.028 174.233 312.157 168.873 315.131 162.745C318.707 155.367 320.344 147.377 320.477 139.24L303.139 139.246ZM303.139 86.2753V96.7002H309.36C307.478 93.1115 305.404 89.6266 303.148 86.2608L303.139 86.2753ZM243.486 39.1892C243.028 39.0154 242.57 38.8388 242.11 38.6679C237.254 36.8746 232.292 35.3833 227.252 34.2026L210.346 52.7561L210.021 53.1007L210.239 53.3382H270.408C262.028 47.5698 252.994 42.8155 243.494 39.1747L243.486 39.1892ZM272.172 54.5863H209.399L208.165 55.7156V96.6973H218.978H218.996H296.137V76.8465C289.159 68.4068 281.105 60.9182 272.18 54.5718L272.172 54.5863Z" fill="#5ABDDA"/>
<path opacity="0.1" d="M33.8976 75.8214V96.6973H4.60059C4.60059 96.5757 4.62086 96.4512 4.62954 96.3296C4.65561 95.9965 4.68167 95.6635 4.71063 95.3334C4.74248 94.9454 4.77723 94.5544 4.81488 94.1751C4.85252 93.7957 4.89306 93.3324 4.9365 92.9125C4.97994 92.4926 5.02048 92.0669 5.06971 91.647C5.11894 91.2271 5.16238 90.8072 5.2145 90.3902C5.26662 89.9732 5.31296 89.5504 5.36798 89.1334C5.41142 88.7859 5.45775 88.4413 5.50408 88.0938C5.57069 87.6045 5.64019 87.1122 5.71548 86.6257C5.71548 86.5533 5.73575 86.478 5.74733 86.4085C6.27587 82.8471 6.99605 79.3168 7.90472 75.8329L33.8976 75.8214Z" fill="#5ABDDA"/>
<path opacity="0.1" d="M4.50761 97.9367H33.8973V137.995H6.6592C6.58681 138.406 6.51731 138.82 6.44201 139.234H33.8973V171.54C33.8481 171.525 33.8046 171.508 33.7583 171.491C32.9822 171.184 32.2119 170.859 31.4417 170.512L30.9494 170.289C30.1771 169.924 29.4049 169.538 28.6327 169.131C28.3634 168.989 28.0941 168.841 27.8277 168.69C23.5406 166.289 19.6461 163.246 16.2791 159.667C16.1807 159.571 16.088 159.47 15.9895 159.377C15.5204 158.868 15.06 158.352 14.614 157.825L14.1217 157.246C13.5947 156.6 13.085 155.937 12.5898 155.265C12.5175 155.167 12.448 155.068 12.3727 154.976C10.3588 152.183 8.68657 149.16 7.39184 145.97C7.3513 145.874 7.31655 145.77 7.27891 145.68C6.88121 144.657 6.52889 143.624 6.22193 142.582C6.08872 142.144 5.96131 141.713 5.85127 141.258C5.81073 141.125 5.77597 140.995 5.74412 140.864C4.09929 134.444 3.90527 127.775 3.90527 121.153C3.90527 120.379 3.90527 119.603 3.90527 118.836C3.90527 116.157 3.93713 113.461 3.98346 110.768C3.98346 110.07 4.01242 109.375 4.0269 108.674C4.06744 106.896 4.12536 105.118 4.20065 103.34C4.21802 102.845 4.24119 102.353 4.26725 101.861C4.26725 101.577 4.28173 101.293 4.31069 101.009C4.38019 99.9783 4.43811 98.956 4.50761 97.9367Z" fill="#5ABDDA"/>
<path opacity="0.1" d="M63.0121 60.6038V96.6973H40.9141V60.6038H44.0647V48.3834H56.9975V60.6038H63.0121Z" fill="#5ABDDA"/>
<path opacity="0.1" d="M63.0121 97.9338H40.917V137.992H63.0121V97.9338Z" fill="#5ABDDA"/>
<path opacity="0.1" d="M40.9141 139.234H63.0121V172.536C60.4054 173.285 57.7491 173.849 55.0631 174.224L54.4028 174.305C54.0785 174.343 53.757 174.375 53.4385 174.407C53.12 174.439 52.7898 174.462 52.4684 174.482H52.367C52.228 174.482 52.0775 174.499 51.9414 174.502H51.7937C51.6199 174.502 51.4462 174.52 51.2724 174.525C51.0263 174.54 50.7801 174.543 50.5282 174.546C50.421 174.546 50.3197 174.546 50.2126 174.546C49.9635 174.546 49.7174 174.546 49.4683 174.546H48.921C48.7733 174.546 48.6314 174.546 48.478 174.546L47.9191 174.525C47.6295 174.525 47.3167 174.494 47.0156 174.473L46.4596 174.433L45.7675 174.369C45.281 174.326 44.7974 174.271 44.3195 174.204L43.7404 174.123L43.4508 174.082C42.9672 174.007 42.4894 173.926 42.0029 173.833C41.6467 173.773 41.2934 173.697 40.9343 173.625L40.9141 139.234Z" fill="#5ABDDA"/>
<path opacity="0.1" d="M201.146 56.3411H182.925V96.6944H201.146V56.3411Z" fill="#5ABDDA"/>
<path opacity="0.1" d="M201.148 97.9338V137.995H110.709V120.715H158.881V130.909H182.925V97.9338H201.148Z" fill="#5ABDDA"/>
<path opacity="0.1" d="M201.435 182.185H201.146V208.464C197.883 208.188 194.63 207.813 191.387 207.338C176.785 205.2 162.55 201.047 149.09 194.996C145.204 193.247 141.397 191.338 137.669 189.268C131.442 185.818 125.476 181.917 119.819 177.595C118.398 176.506 116.996 175.392 115.612 174.253C114.653 173.463 113.7 172.652 112.736 171.864C112.067 171.323 111.392 170.79 110.709 170.28V139.234H182.685C182.635 139.049 182.586 138.863 182.534 138.681C182.589 138.863 182.641 139.049 182.69 139.234H201.146V182.167C201.244 182.17 201.34 182.179 201.435 182.185Z" fill="#5ABDDA"/>
<path opacity="0.1" d="M248.666 53.3352H236.793V49.646H242.116V38.6563C242.577 38.8243 243.037 38.9971 243.494 39.1747V49.646H248.666V53.3352Z" fill="#5ABDDA"/>
<path opacity="0.1" d="M277.271 96.6973H218.984C218.984 96.6973 218.984 96.6973 219.004 96.7118L218.978 96.6973H208.165V56.344H211.229V86.171H225.23V68.5065H236.796V54.5746H248.669V68.518H260.235V86.1826H277.271V96.6973Z" fill="#5ABDDA"/>
<path opacity="0.1" d="M208.165 97.9338V137.995H277.271V97.9338H208.165ZM296.03 185.15L296.126 153.441H277.271V139.251H208.165V208.896C213.831 209.134 219.505 209.066 225.164 208.693H225.262C227.965 208.523 230.655 208.276 233.333 207.952H233.393C247.679 206.289 261.647 202.562 274.862 196.887" fill="#5ABDDA"/>
<path opacity="0.1" d="M304.368 139.234H320.489C320.347 147.368 318.714 155.358 315.14 162.737C312.166 168.867 308.034 174.227 303.151 178.91V153.426H304.368V139.234Z" fill="#5ABDDA"/>
<path opacity="0.1" d="M320.497 137.995H304.367V104.516H313.095C317.613 115.071 320.482 126.655 320.497 137.995Z" fill="#5ABDDA"/>
<path opacity="0.1" d="M201.149 67.5596H191.387V80.2114H201.149V67.5596Z" fill="#5ABDDA"/>
<path opacity="0.1" d="M201.149 93.7841H191.387V96.6973H201.149V93.7841Z" fill="#5ABDDA"/>
<path opacity="0.1" d="M201.149 97.9338H191.387V106.433H201.149V97.9338Z" fill="#5ABDDA"/>
<path opacity="0.1" d="M201.149 120.009H191.387V132.661H201.149V120.009Z" fill="#5ABDDA"/>
<path opacity="0.1" d="M201.149 146.233H191.387V158.885H201.149V146.233Z" fill="#5ABDDA"/>
<path opacity="0.1" d="M201.146 182.168C201.244 182.168 201.34 182.168 201.435 182.185H201.146V185.124H191.387V172.458H201.146V182.168Z" fill="#5ABDDA"/>
<path opacity="0.1" d="M201.146 198.677V208.45C197.883 208.174 194.63 207.798 191.387 207.324V198.677H201.146Z" fill="#5ABDDA"/>
<path opacity="0.1" d="M152.545 137.065H110.709V137.995H152.545V137.065Z" fill="#5ABDDA"/>
<path opacity="0.1" d="M152.545 139.231H110.709V142.793H152.545V139.231Z" fill="#5ABDDA"/>
<path opacity="0.1" d="M152.545 154.469H110.709V160.197H152.545V154.469Z" fill="#5ABDDA"/>
<path opacity="0.1" d="M152.542 171.873V177.601H119.819C118.399 176.516 116.995 175.402 115.609 174.259C114.65 173.468 113.701 172.658 112.733 171.873H152.542Z" fill="#5ABDDA"/>
<path opacity="0.1" d="M152.542 189.274V194.996H149.088C145.205 193.245 141.399 191.335 137.669 189.265L152.542 189.274Z" fill="#5ABDDA"/>
<path opacity="0.1" d="M233.402 101.817H225.167V110.053H233.402V101.817Z" fill="#5ABDDA"/>
<path opacity="0.1" d="M55.0834 63.4446H46.8477V71.6803H55.0834V63.4446Z" fill="#5ABDDA"/>
<path opacity="0.1" d="M55.0834 82.5744H46.8477V90.8101H55.0834V82.5744Z" fill="#5ABDDA"/>
<path opacity="0.1" d="M55.0834 101.704H46.8477V109.94H55.0834V101.704Z" fill="#5ABDDA"/>
<path opacity="0.1" d="M55.0834 120.831H46.8477V129.067H55.0834V120.831Z" fill="#5ABDDA"/>
<path opacity="0.1" d="M55.0834 139.961H46.8477V148.197H55.0834V139.961Z" fill="#5ABDDA"/>
<path opacity="0.1" d="M55.0834 159.091H46.8477V167.326H55.0834V159.091Z" fill="#5ABDDA"/>
<path opacity="0.1" d="M264.842 101.817H256.606V110.053H264.842V101.817Z" fill="#5ABDDA"/>
<path opacity="0.1" d="M233.402 122.131H225.167V130.367H233.402V122.131Z" fill="#5ABDDA"/>
<path opacity="0.1" d="M264.842 122.131H256.606V130.367H264.842V122.131Z" fill="#5ABDDA"/>
<path opacity="0.1" d="M233.402 142.443H225.167V150.678H233.402V142.443Z" fill="#5ABDDA"/>
<path opacity="0.1" d="M264.842 142.443H256.606V150.678H264.842V142.443Z" fill="#5ABDDA"/>
<path opacity="0.1" d="M233.402 162.757H225.167V170.993H233.402V162.757Z" fill="#5ABDDA"/>
<path opacity="0.1" d="M264.842 162.757H256.606V170.993H264.842V162.757Z" fill="#5ABDDA"/>
<path opacity="0.1" d="M233.402 183.071H225.167V191.307H233.402V183.071Z" fill="#5ABDDA"/>
<path opacity="0.1" d="M264.842 183.071H256.606V191.307H264.842V183.071Z" fill="#5ABDDA"/>
<path opacity="0.1" d="M225.167 208.693V203.382H233.399V207.937L225.167 208.693Z" fill="#5ABDDA"/>
<path opacity="0.1" d="M5.7124 86.4026V91.1141H33.8974V86.4026H5.7124ZM8.52135 90.8188H6.22207V86.6922H8.53873L8.52135 90.8188ZM11.3274 90.8188H9.01074V86.6922H11.3274V90.8188ZM14.1277 90.8188H11.811V86.6922H14.1277V90.8188ZM16.9337 90.8188H14.62V86.6922H16.9366L16.9337 90.8188ZM19.7369 90.8188H17.4202V86.6922H19.7369V90.8188ZM22.5429 90.8188H20.2263V86.6922H22.5429V90.8188ZM25.349 90.8188H23.0323V86.6922H25.349V90.8188ZM28.1521 90.8188H25.8355V86.6922H28.1521V90.8188ZM30.9553 90.8188H28.6386V86.6922H30.9553V90.8188ZM33.7584 90.8188H31.4418V86.6922H33.7584V90.8188Z" fill="#5ABDDA"/>
<path opacity="0.1" d="M5.7124 100.112V104.823H33.8974V100.112H5.7124ZM8.52135 104.525H6.22207V100.41H8.53873L8.52135 104.525ZM11.3274 104.525H9.01074V100.41H11.3274V104.525ZM14.1277 104.525H11.811V100.41H14.1277V104.525ZM16.9337 104.525H14.62V100.41H16.9366L16.9337 104.525ZM19.7369 104.525H17.4202V100.41H19.7369V104.525ZM22.5429 104.525H20.2263V100.41H22.5429V104.525ZM25.349 104.525H23.0323V100.41H25.349V104.525ZM28.1521 104.525H25.8355V100.41H28.1521V104.525ZM30.9553 104.525H28.6386V100.41H30.9553V104.525ZM33.7584 104.525H31.4418V100.41H33.7584V104.525Z" fill="#5ABDDA"/>
<path opacity="0.1" d="M5.7124 113.826V118.546H33.8974V113.826H5.7124ZM8.52135 118.239H6.22207V114.121H8.53873L8.52135 118.239ZM11.3274 118.239H9.01074V114.121H11.3274V118.239ZM14.1277 118.239H11.811V114.121H14.1277V118.239ZM16.9337 118.239H14.62V114.121H16.9366L16.9337 118.239ZM19.7369 118.239H17.4202V114.121H19.7369V118.239ZM22.5429 118.239H20.2263V114.121H22.5429V118.239ZM25.349 118.239H23.0323V114.121H25.349V118.239ZM28.1521 118.239H25.8355V114.121H28.1521V118.239ZM30.9553 118.239H28.6386V114.121H30.9553V118.239ZM33.7584 118.239H31.4418V114.121H33.7584V118.239Z" fill="#5ABDDA"/>
<path opacity="0.1" d="M5.7124 127.541V132.246H33.8974V127.541H5.7124ZM8.52135 131.954H6.22207V127.833H8.53873L8.52135 131.954ZM11.3274 131.954H9.01074V127.833H11.3274V131.954ZM14.1277 131.954H11.811V127.833H14.1277V131.954ZM16.9337 131.954H14.62V127.833H16.9366L16.9337 131.954ZM19.7369 131.954H17.4202V127.833H19.7369V131.954ZM22.5429 131.954H20.2263V127.833H22.5429V131.954ZM25.349 131.954H23.0323V127.833H25.349V131.954ZM28.1521 131.954H25.8355V127.833H28.1521V131.954ZM30.9553 131.954H28.6386V127.833H30.9553V131.954ZM33.7584 131.954H31.4418V127.833H33.7584V131.954Z" fill="#5ABDDA"/>
<path opacity="0.1" d="M5.83398 141.252C5.94692 141.696 6.07434 142.139 6.20754 142.576V141.548H8.5242V145.666H7.28479C7.32244 145.761 7.36008 145.866 7.39773 145.955H33.8974V141.252H5.83398ZM11.336 145.666H9.01939V141.548H11.336V145.666ZM14.1363 145.666H11.8196V141.548H14.1363V145.666ZM16.9424 145.666H14.6199V141.548H16.9366L16.9424 145.666ZM19.7455 145.666H17.4289V141.548H19.7455V145.666ZM22.5516 145.666H20.2349V141.548H22.5516V145.666ZM25.3576 145.666H23.041V141.548H25.3576V145.666ZM28.1608 145.666H25.8441V141.548H28.1608V145.666ZM30.9639 145.666H28.6473V141.548H30.9639V145.666ZM33.7671 145.666H31.4504V141.548H33.7671V145.666Z" fill="#5ABDDA"/>
<path opacity="0.1" d="M12.3789 154.967C12.4513 155.06 12.5208 155.164 12.5961 155.257H14.128V157.234C14.293 157.431 14.4552 157.628 14.6232 157.814V155.245H16.9398V159.377H16.0016C16.0942 159.473 16.184 159.574 16.2912 159.667H33.9065V154.967H12.3789ZM19.7372 159.377H17.4205V155.262H19.7372V159.377ZM22.5432 159.377H20.2266V155.262H22.5432V159.377ZM25.3493 159.377H23.0326V155.262H25.3493V159.377ZM28.1525 159.377H25.8358V155.262H28.1525V159.377ZM30.9556 159.377H28.639V155.262H30.9556V159.377ZM33.7588 159.377H31.4421V155.262H33.7588V159.377Z" fill="#5ABDDA"/>
<path opacity="0.1" d="M27.8394 168.679C28.1029 168.829 28.3722 168.968 28.6444 169.119V168.974H30.9611V170.277L31.4533 170.506V168.974H33.77V171.479C33.8144 171.501 33.861 171.519 33.909 171.531V168.679H27.8394Z" fill="#5ABDDA"/>
<path opacity="0.1" d="M182.534 138.678C182.589 138.863 182.635 139.049 182.688 139.231C182.641 139.049 182.592 138.863 182.534 138.678ZM44.0762 53.3266V54.5631H57.0118V53.3266H44.0762ZM182.534 138.678C182.589 138.863 182.635 139.049 182.688 139.231C182.641 139.049 182.592 138.863 182.534 138.678ZM182.534 138.678C182.589 138.863 182.635 139.049 182.688 139.231C182.641 139.049 182.592 138.863 182.534 138.678Z" fill="#5ABDDA"/>
<path d="M134.171 109.946C134.171 109.946 133.03 109.786 133.03 108.124C133.03 106.462 132.213 103.358 132.213 103.358C132.213 103.343 131.507 97.9512 130.531 97.094C129.555 96.2369 128.301 91.2039 128.301 91.2039C128.301 91.2039 128.087 88.4731 127.65 87.8853C127.212 87.2974 126.622 85.8582 125.75 83.8051C124.878 81.7519 121.244 80.3301 121.244 80.3301C121.244 80.3301 114.673 76.5192 112.811 75.2769C112.642 75.1748 112.484 75.0554 112.339 74.9207C112.015 74.495 110.602 74.4863 110.602 74.4863C110.454 73.5539 110.312 72.4824 110.266 71.5123C110.266 71.4081 110.266 71.3038 110.252 71.1996C112.328 69.9723 113.892 68.0372 114.656 65.7496C114.691 65.6396 114.72 65.5238 114.752 65.4137C114.876 65.3727 114.991 65.3062 115.088 65.2185C115.185 65.1307 115.263 65.0236 115.316 64.9041C115.484 64.5305 115.487 64.0932 115.696 63.7457C115.939 63.3345 116.402 63.1144 116.767 62.8046C117.688 62.0227 117.925 60.7051 117.882 59.5062C117.853 58.5361 117.697 57.5573 117.757 56.593L117.775 56.3498C117.792 56.205 117.813 56.0602 117.839 55.9212C117.98 55.203 118.29 54.5254 118.464 53.8131C118.638 53.1007 118.655 52.2985 118.25 51.6846C117.656 50.784 116.42 50.6045 115.334 50.5118C114.103 50.4076 113.003 50.5437 112.215 49.5214C111.846 48.9872 111.432 48.4862 110.975 48.0243C110.813 47.8737 109.238 46.9123 109.238 46.8486C107.7 46.1365 105.958 46.0028 104.33 46.4721C103.513 46.7096 102.743 47.0976 101.914 47.2917C100.128 47.7144 98.0717 47.2569 96.5543 48.2791C95.7087 48.8583 95.2019 49.7792 94.727 50.6769C94.3409 51.4163 93.949 52.1547 93.5513 52.8922C92.9113 54.1055 92.2598 55.3391 91.9904 56.6828C91.9338 56.9752 91.899 57.2714 91.8862 57.5689V57.5834C91.8862 57.6906 91.8862 57.7977 91.8862 57.9048V58.0409C91.8862 58.1423 91.8862 58.2408 91.9036 58.3305C91.921 58.4203 91.9181 58.4493 91.9267 58.5101C91.9354 58.5709 91.9499 58.707 91.9673 58.7997C91.9847 58.8923 92.0194 59.0545 92.0542 59.1819C92.0686 59.2369 92.0889 59.289 92.1063 59.3412C92.1352 59.4396 92.17 59.5352 92.2076 59.6308C92.2279 59.68 92.2482 59.7321 92.2713 59.7813C92.3148 59.8827 92.3669 59.9812 92.419 60.0709C92.4422 60.1115 92.4596 60.1491 92.4827 60.1868C92.5635 60.3214 92.6525 60.451 92.7492 60.5748C93.3689 61.348 94.281 61.8403 94.9558 62.5642C94.9558 62.5932 94.9558 62.6221 94.9558 62.6482C94.9558 62.7293 94.9558 62.8075 94.9558 62.8886C94.9916 64.5031 95.4213 66.0845 96.2076 67.4951C96.9939 68.9057 98.113 70.1029 99.4675 70.9824C99.4675 71.0924 99.4819 71.2054 99.4877 71.3154C99.5442 72.175 99.5336 73.0377 99.4559 73.8956C99.338 73.7567 99.1904 73.6461 99.0239 73.5719C98.8575 73.4977 98.6766 73.4619 98.4945 73.467C98.37 73.4609 98.2454 73.4716 98.1238 73.4988L98.0977 73.4786V73.5046C97.4607 73.661 96.6759 74.3242 95.9259 76.2093C95.9259 76.2093 93.644 78.7808 91.9065 78.6737C90.169 78.5665 85.7702 81.3494 85.7702 81.3494C85.7702 81.3494 81.4786 84.1352 80.5577 86.9731C80.043 88.5824 79.4259 90.157 78.7102 91.6875L73.4051 102.619L72.4263 111.292C72.4263 111.292 72.9678 115.149 72.8606 115.737C72.7535 116.325 75.0875 121.627 75.0875 121.627C75.0875 121.627 82.7991 135.177 85.9498 135.872L86.1756 135.713C86.3104 135.783 86.4534 135.837 86.6013 135.872L87.25 135.414C87.2889 135.924 87.2724 136.437 87.2008 136.943C86.7664 138.281 87.3629 147.012 88.1216 148.724C88.8803 150.435 88.611 172.875 88.611 172.875L88.5039 174.856C88.5039 174.856 88.5039 174.919 88.5299 175.029L88.5039 175.498L88.5821 175.539C88.6633 176.167 88.6368 176.805 88.5039 177.424C88.2317 178.293 88.1216 180.749 88.1216 180.749C88.1216 180.749 85.9527 194.614 86.9807 197.4C88.0087 200.185 88.8832 203.237 88.8832 203.237C88.8832 203.237 89.9692 206.712 88.9354 207.306C87.9015 207.9 84.9623 208.896 85.5675 210.344C86.1177 211.682 88.2056 215.267 88.5155 215.791L88.4894 216.066L88.0637 220.679C88.1326 221.288 88.2978 221.882 88.5531 222.44C89.0193 223.445 89.9257 224.487 91.6487 224.374C91.9383 224.354 92.2742 224.319 92.5986 224.276C95.7521 223.853 99.6354 222.445 99.6354 222.445C99.4338 222.317 99.249 222.165 99.0852 221.991C98.9302 221.841 98.8074 221.661 98.7243 221.461C98.6411 221.262 98.5994 221.048 98.6016 220.832C98.6479 219.993 97.0755 215.991 96.6846 215.006C96.6238 214.864 96.5919 214.783 96.5919 214.783C96.5919 214.783 100.177 211.036 99.5804 207.714C99.5804 207.714 95.6131 205.398 96.9191 204.127C98.2252 202.855 100.559 199.204 100.559 199.204C100.559 199.204 100.666 185.55 100.559 183.511C100.447 182.096 100.515 180.673 100.759 179.275C100.802 179.063 100.855 178.858 100.91 178.655C102.716 178.924 104.539 179.063 106.365 179.069C107.031 179.069 107.709 179.069 108.392 179.028C108.392 179.221 108.401 179.43 108.418 179.654C108.569 183.036 108.85 188.967 109.079 191.171C109.403 194.33 111.196 202.844 111.196 202.844C111.196 202.844 107.776 205.039 111.792 210.448C111.792 210.448 111.792 212.409 111.526 212.692C111.241 213.62 111.012 214.564 110.839 215.519C110.671 216.538 110.602 217.569 110.874 218.105C111.526 219.385 115.435 219.28 115.435 219.28L115.531 219.263C116.269 219.187 117.014 219.258 117.725 219.472C118.435 219.686 119.096 220.039 119.669 220.511C121.154 221.704 126.792 221.18 129.845 220.801C131.041 220.65 131.84 220.511 131.84 220.511C131.879 220.376 131.892 220.234 131.88 220.094C131.849 219.344 131.261 217.699 127.276 216.231C127.276 216.231 123.529 213.712 123.581 211.517H123.503H123.068C123.384 211.499 123.587 211.517 123.587 211.517C123.587 211.517 122.119 206.159 122.718 205.725C123.317 205.291 121.522 199.354 121.522 199.354C121.522 199.354 120.494 189.393 120.439 188.695C120.441 188.096 120.532 187.501 120.708 186.928L120.439 181.467C120.439 181.467 120.387 179.651 120.439 179.06C120.43 178.547 120.389 178.036 120.314 177.528C120.288 177.326 120.262 177.114 120.233 176.906C121.638 176.55 122.55 176.219 122.55 176.219L122.388 157.208C123.581 154.892 123.801 149.81 123.795 146.204C123.795 143.888 123.691 142.173 123.691 142.173L125.321 139.512C125.321 139.512 125.698 136.327 125.101 135.629C124.838 135.313 124.956 134.986 125.174 134.717C125.286 134.627 125.406 134.546 125.53 134.473C125.53 134.473 125.512 134.447 125.492 134.41C125.606 134.314 125.727 134.228 125.854 134.152C125.854 134.152 125.275 133.254 125.793 132.875C126.28 133.205 126.714 133.454 127.044 133.657C127.021 133.868 126.998 133.99 126.998 133.99L127.137 133.7C127.456 133.88 127.65 133.99 127.65 133.99C127.65 133.99 130.204 128.902 130.149 128.152C130.094 127.402 131.886 124.242 131.886 124.242C131.886 124.242 132.103 122.583 133.082 121.888C134.061 121.193 133.841 116.157 133.841 116.157C133.841 116.157 134.113 113.534 134.765 112.462C135.416 111.391 134.171 109.946 134.171 109.946ZM85.3011 107.713L85.3503 108.926C85.0607 108.46 84.8522 108.124 84.8522 108.124L85.3011 107.713Z" fill="url(#paint0_linear_399_387)"/>
<path d="M127.789 131.792L127.163 134.456C127.163 134.456 122.154 131.899 121.25 128.65C120.347 125.401 122.762 124.167 122.762 124.167L127.43 126.145L127.789 131.792Z" fill="white"/>
<path opacity="0.1" d="M127.789 131.792L127.163 134.456C127.163 134.456 122.154 131.899 121.25 128.65C120.347 125.401 122.762 124.167 122.762 124.167L127.43 126.145L127.789 131.792Z" fill="black"/>
<path d="M99.6731 222.463C99.6731 222.463 95.0398 224.166 91.8544 224.38C90.1632 224.493 89.2742 223.456 88.8167 222.457C88.5667 221.902 88.4055 221.311 88.3389 220.705L88.753 216.115L88.9731 213.671L95.7406 211.913L96.6991 214.844L96.7889 215.067C97.174 216.046 98.7175 220.027 98.6712 220.859C98.6693 221.071 98.7104 221.282 98.792 221.479C98.8736 221.676 98.994 221.854 99.1461 222.002C99.3015 222.178 99.4786 222.332 99.6731 222.463Z" fill="white"/>
<path d="M131.322 220.129C131.333 220.268 131.32 220.408 131.281 220.543C131.281 220.543 121.372 222.196 119.345 220.543C118.773 220.06 118.107 219.702 117.389 219.491C116.671 219.281 115.916 219.223 115.175 219.321C115.175 219.321 111.34 219.425 110.7 218.163C110.434 217.633 110.504 216.605 110.669 215.591C110.837 214.641 111.061 213.702 111.34 212.779L111.494 212.658L112.406 211.925L123.086 211.609H123.167C123.115 213.793 126.793 216.298 126.793 216.298C130.699 217.746 131.275 219.382 131.322 220.129Z" fill="white"/>
<path opacity="0.1" d="M131.322 220.129C131.332 220.268 131.317 220.409 131.278 220.543C131.278 220.543 121.372 222.196 119.344 220.543C118.773 220.06 118.108 219.702 117.39 219.492C116.672 219.281 115.919 219.223 115.177 219.321C115.177 219.321 111.34 219.425 110.703 218.163C110.437 217.63 110.504 216.605 110.669 215.591C112.145 215.739 114.477 216.107 115.392 216.984C116.776 218.319 119.121 219.651 120.561 219.755C121.687 219.828 128.426 220.042 131.322 220.129Z" fill="black"/>
<path opacity="0.1" d="M99.6734 222.463C99.6734 222.463 95.04 224.166 91.8546 224.38C90.1635 224.493 89.2745 223.456 88.8198 222.454C89.9984 222.851 91.6346 223.268 92.4946 222.886C93.514 222.434 97.1279 222.141 99.155 222.017C99.3093 222.186 99.4833 222.336 99.6734 222.463Z" fill="black"/>
<path d="M106.548 85.2443C102.725 83.7588 97.8084 78.8503 99.0362 76.5569C99.3089 75.9781 99.4709 75.3534 99.514 74.7151C99.593 73.8486 99.6046 72.9772 99.5487 72.1089C99.4627 70.6867 99.2915 69.271 99.0362 67.8694C99.0362 67.8694 110.97 68.1387 110.275 69.8965C110.072 70.4119 110.04 71.3067 110.095 72.3087C110.15 73.3106 110.295 74.4429 110.446 75.4014C110.654 76.7161 110.863 77.7181 110.863 77.7181C110.863 77.7181 110.133 78.7403 109.704 78.7953C109.276 78.8503 112.033 87.3612 106.548 85.2443Z" fill="#CF6F80"/>
<path opacity="0.1" d="M96.7805 215.067L96.6908 215.165C93.1231 210.851 88.8083 216.228 88.8083 216.228L88.7446 216.115L88.9647 213.671L95.7323 211.913L96.6908 214.844L96.7805 215.067Z" fill="black"/>
<path opacity="0.1" d="M123.17 211.913C123.17 211.913 120.564 211.858 119.174 213.086C117.784 214.314 111.065 213.353 111.355 213.086C111.441 212.954 111.492 212.803 111.505 212.646L112.418 211.913L123.097 211.598C123.138 211.792 123.17 211.913 123.17 211.913Z" fill="black"/>
<path d="M101.22 178.029C101.025 178.509 100.878 179.007 100.779 179.515C100.538 180.907 100.471 182.323 100.58 183.731C100.687 185.758 100.58 199.343 100.58 199.343C100.58 199.343 98.289 202.965 97.0119 204.242C95.7349 205.519 99.6182 207.813 99.6182 207.813C100.197 211.114 96.6876 214.844 96.6876 214.844C93.12 210.529 88.8052 215.91 88.8052 215.91C88.8052 215.91 86.4596 211.855 85.8746 210.408C85.2897 208.96 88.1652 207.958 89.1758 207.37C90.1865 206.782 89.1266 203.316 89.1266 203.316C89.1266 203.316 88.2724 200.278 87.2588 197.507C86.2453 194.735 88.3766 180.94 88.3766 180.94C88.3766 180.94 88.4866 178.49 88.7502 177.636C88.8831 177.019 88.9096 176.384 88.8284 175.759C88.811 175.548 88.7907 175.371 88.7762 175.252C88.7617 175.134 88.7502 175.079 88.7502 175.079L88.7907 175.009L90.2386 172.31C90.2386 172.31 101.915 176.33 101.22 178.029Z" fill="#5ABDDA"/>
<path d="M123.17 211.595C123.17 211.595 120.564 211.54 119.174 212.753C117.784 213.967 111.065 213.02 111.355 212.753C111.644 212.487 111.621 210.515 111.621 210.515C107.68 205.134 111.042 202.951 111.042 202.951C111.042 202.951 109.281 194.481 108.963 191.339C108.74 189.144 108.465 183.245 108.317 179.877C108.253 178.429 108.216 177.433 108.216 177.433L111.436 176.784L111.85 176.7L119.617 175.142C119.617 175.142 119.831 176.59 119.976 177.775C120.048 178.28 120.089 178.79 120.097 179.301C120.045 179.88 120.097 181.693 120.097 181.693L120.361 187.128C120.189 187.698 120.1 188.29 120.097 188.886C120.15 189.578 121.16 199.487 121.16 199.487C121.16 199.487 122.918 205.401 122.318 205.826C121.719 206.252 123.17 211.595 123.17 211.595Z" fill="#5ABDDA"/>
<path opacity="0.1" d="M110.275 69.8965C110.072 70.4119 110.04 71.3067 110.095 72.3087C108.497 73.2712 106.659 73.7634 104.794 73.7286C102.928 73.6937 101.11 73.1333 99.5487 72.1118C99.4627 70.6887 99.2916 69.272 99.0361 67.8694C99.0361 67.8694 110.97 68.1329 110.275 69.8965Z" fill="black"/>
<path d="M114.888 63.4967C114.89 64.5402 114.726 65.5774 114.401 66.5692C113.676 68.7913 112.188 70.6854 110.201 71.9168C108.214 73.1481 105.856 73.6374 103.543 73.2981C101.23 72.9589 99.1118 71.8129 97.5621 70.0628C96.0125 68.3126 95.1314 66.071 95.0747 63.7341C95.0747 63.6531 95.0747 63.5778 95.0747 63.4967C95.0522 62.1813 95.2919 60.8746 95.7797 59.6528C96.2675 58.431 96.9938 57.3185 97.916 56.3804C98.8383 55.4422 99.9382 54.697 101.151 54.1884C102.365 53.6797 103.667 53.4178 104.983 53.4178C106.298 53.4178 107.601 53.6797 108.814 54.1884C110.027 54.697 111.127 55.4422 112.049 56.3804C112.972 57.3185 113.698 58.431 114.186 59.6528C114.674 60.8746 114.913 62.1813 114.891 63.4967H114.888Z" fill="#CF6F80"/>
<path opacity="0.1" d="M106.548 85.2444C102.725 83.7588 97.8084 78.8504 99.0362 76.5569C99.3089 75.9781 99.4709 75.3535 99.514 74.7151L104.747 79.0154L107.984 81.6709L110.446 75.4043C110.654 76.7191 110.863 77.721 110.863 77.721C110.863 77.721 110.133 78.7432 109.704 78.7983C109.276 78.8533 112.033 87.3612 106.548 85.2444Z" fill="black"/>
<path d="M120.08 104.25L115.71 177.659L110.012 178.032L95.2544 135.467L97.6753 84.9316L98.185 74.2547L104.747 79.6438L107.987 82.2993L110.521 75.8503L115.233 79.9566L120.08 104.25Z" fill="#5ABDDA"/>
<path opacity="0.1" d="M101.219 178.029C101.025 178.509 100.878 179.007 100.779 179.515C96.6324 178.875 92.605 177.616 88.8311 175.782L88.7529 175.742L88.779 175.275L88.7935 175.032L90.2414 172.333C90.2414 172.333 101.914 176.33 101.219 178.029Z" fill="black"/>
<path opacity="0.1" d="M111.503 179.527C110.443 179.707 109.374 179.829 108.3 179.891C108.236 178.443 108.199 177.447 108.199 177.447L111.419 176.799L111.503 179.527Z" fill="black"/>
<path opacity="0.1" d="M119.959 177.789C117.9 178.325 114.72 178.927 111.874 178.551L111.833 176.715L119.6 175.157C119.6 175.157 119.814 176.59 119.959 177.789Z" fill="black"/>
<path opacity="0.1" d="M111.821 178.887C99.9483 180.914 89.0745 175.102 89.0745 175.102L89.1787 173.133C89.1787 173.133 89.448 150.809 88.7009 149.097C87.9538 147.386 87.3717 138.707 87.7945 137.375C88.2173 136.043 86.251 116.067 86.251 116.067L85.9325 107.959L74.2739 103.236L79.4864 92.3709C80.1904 90.8476 80.796 89.2806 81.2992 87.6797C82.2056 84.8592 86.4132 82.0879 86.4132 82.0879C86.4132 82.0879 90.728 79.3195 92.4336 79.4237C94.1393 79.528 96.3748 76.9738 96.3748 76.9738C98.0255 72.7662 99.5197 74.6717 99.5197 74.6717C99.5197 74.8715 99.5197 74.6717 99.4386 75.2943C98.8595 79.9131 108.804 94.5081 108.946 94.7658L109.893 117.834L110.851 147.027L111.821 178.887Z" fill="black"/>
<path d="M111.503 178.887C99.6298 180.914 88.7531 175.102 88.7531 175.102L88.8603 173.133C88.8603 173.133 89.1296 150.809 88.3796 149.097C87.6295 147.386 87.0504 138.707 87.4761 137.375C87.9017 136.043 85.9326 116.067 85.9326 116.067L85.6111 107.959L73.9468 103.219L79.1593 92.3536C79.8618 90.8296 80.4672 89.2627 80.972 87.6624C81.8755 84.8418 86.0861 82.0705 86.0861 82.0705C86.0861 82.0705 90.4008 79.3021 92.1036 79.4064C93.8063 79.5106 96.0448 76.9565 96.0448 76.9565C97.6983 72.7489 99.5198 74.6543 99.5198 74.6543C99.5198 74.8541 99.346 74.9439 99.4387 75.2769C100.713 79.7568 108.485 94.4907 108.627 94.7484L109.586 117.817L110.544 147.009L111.503 178.887Z" fill="white"/>
<path opacity="0.1" d="M108.303 95.4058C107.026 94.8729 100.261 87.1498 100.261 87.1498V85.392C100.015 84.8128 98.5525 85.1661 97.3652 85.5716L97.8749 74.8947L98.4541 75.3754C99.7224 79.8523 108.155 95.148 108.303 95.4058Z" fill="black"/>
<path d="M108.624 94.7658C107.344 94.233 100.579 86.5098 100.579 86.5098V84.7521C100.333 84.1729 98.8709 84.5262 97.6836 84.9316L98.1962 74.2547L98.7753 74.7354C100.047 79.2123 108.482 94.511 108.624 94.7658Z" fill="white"/>
<path opacity="0.1" d="M89.0744 133.283C89.2337 133.283 97.3304 132.432 97.3304 132.432C97.3304 132.432 102.233 142.072 101.912 144.418C101.59 146.763 101.008 148.839 99.036 148.472C97.064 148.104 88.4229 148.761 88.4229 148.761L89.0744 133.283Z" fill="black"/>
<path d="M88.7531 132.643C88.9124 132.643 97.0091 131.792 97.0091 131.792C97.0091 131.792 101.909 141.435 101.59 143.778C101.272 146.12 100.684 148.199 98.7148 147.832C96.7456 147.464 88.1016 148.121 88.1016 148.121L88.7531 132.643Z" fill="white"/>
<path d="M94.8545 128.117C94.8545 128.117 102.285 132.11 102.444 133.329C102.604 134.549 98.6625 132.797 97.8111 132.585C97.2507 132.45 96.6803 132.361 96.1055 132.319L90.4268 132.472L94.8545 128.117Z" fill="#CF6F80"/>
<path opacity="0.1" d="M106.229 95.9038C106.661 95.9038 107.011 95.5538 107.011 95.122C107.011 94.6901 106.661 94.3401 106.229 94.3401C105.797 94.3401 105.447 94.6901 105.447 95.122C105.447 95.5538 105.797 95.9038 106.229 95.9038Z" fill="black"/>
<path d="M106.229 95.5853C106.661 95.5853 107.011 95.2352 107.011 94.8034C107.011 94.3716 106.661 94.0215 106.229 94.0215C105.797 94.0215 105.447 94.3716 105.447 94.8034C105.447 95.2352 105.797 95.5853 106.229 95.5853Z" fill="#3F3D56"/>
<path opacity="0.1" d="M107.669 129.75C108.1 129.75 108.45 129.4 108.45 128.968C108.45 128.537 108.1 128.187 107.669 128.187C107.237 128.187 106.887 128.537 106.887 128.968C106.887 129.4 107.237 129.75 107.669 129.75Z" fill="black"/>
<path d="M107.669 129.429C108.1 129.429 108.45 129.079 108.45 128.647C108.45 128.215 108.1 127.865 107.669 127.865C107.237 127.865 106.887 128.215 106.887 128.647C106.887 129.079 107.237 129.429 107.669 129.429Z" fill="#3F3D56"/>
<path opacity="0.1" d="M107.008 112.827C107.44 112.827 107.79 112.477 107.79 112.045C107.79 111.613 107.44 111.263 107.008 111.263C106.577 111.263 106.227 111.613 106.227 112.045C106.227 112.477 106.577 112.827 107.008 112.827Z" fill="black"/>
<path d="M107.008 112.509C107.44 112.509 107.79 112.158 107.79 111.727C107.79 111.295 107.44 110.945 107.008 110.945C106.577 110.945 106.227 111.295 106.227 111.727C106.227 112.158 106.577 112.509 107.008 112.509Z" fill="#3F3D56"/>
<path d="M125.032 132.157C125.032 132.157 125.565 132.956 125.032 133.329C124.499 133.703 125.084 134.607 125.084 134.607C125.084 134.607 123.755 135.385 124.34 136.086C124.925 136.787 124.554 139.952 124.554 139.952L122.956 142.599C122.956 142.599 123.051 144.305 123.057 146.61C123.057 150.206 122.846 155.262 121.676 157.567L121.838 176.48C121.838 176.48 116.24 178.525 111.555 177.902L110.86 147.554C110.86 147.554 111.873 130.344 112.247 127.043C112.466 125.329 112.555 123.601 112.513 121.874C112.513 121.874 112.354 116.707 111.818 114.31C111.818 114.31 111.239 103.922 111.181 101.047C111.155 99.6713 111.228 95.6577 111.309 91.841C111.398 87.6681 111.5 83.7327 111.5 83.7327L110.443 75.3696C110.443 75.3696 111.5 75.2624 111.818 75.6881C111.961 75.8214 112.116 75.9407 112.282 76.0443C114.106 77.2779 120.552 81.0714 120.552 81.0714C120.552 81.0714 124.12 82.4904 124.974 84.5233C125.828 86.5561 126.422 87.9982 126.836 88.5774C127.25 89.1566 127.476 91.8786 127.476 91.8786C127.476 91.8786 128.704 96.8884 129.662 97.7369C130.621 98.5854 131.322 103.983 131.322 103.983L122.851 110.644C122.851 110.644 122.107 121.723 121.948 122.152C121.789 122.58 125.032 132.157 125.032 132.157Z" fill="white"/>
<path d="M125.353 132.157C125.353 132.157 125.883 132.956 125.353 133.329C124.823 133.703 125.402 134.607 125.402 134.607C125.402 134.607 124.082 135.394 124.661 136.095C125.24 136.796 124.875 139.961 124.875 139.961L123.277 142.608C123.277 142.608 123.372 144.313 123.381 146.618C123.381 150.215 123.17 155.271 122 157.576L122.159 176.489C122.159 176.489 116.553 178.533 111.873 177.911L111.181 147.562C111.181 147.562 112.195 130.353 112.568 127.051C112.787 125.337 112.875 123.609 112.832 121.882C112.832 121.882 112.672 116.716 112.14 114.318C112.14 114.318 111.56 103.931 111.5 101.056C111.474 99.68 111.549 95.6664 111.627 91.8497C111.717 87.6768 111.818 83.7414 111.818 83.7414L110.422 75.2653C110.422 75.2653 111.818 75.2653 112.14 75.6968C112.281 75.8317 112.436 75.9511 112.603 76.053C114.427 77.2866 120.876 81.0801 120.876 81.0801C120.876 81.0801 124.441 82.4991 125.295 84.532C126.15 86.5648 126.743 88.0069 127.16 88.5861C127.577 89.1653 127.797 91.8873 127.797 91.8873C127.797 91.8873 129.025 96.8971 129.984 97.7456C130.942 98.5941 131.634 103.98 131.634 103.98L123.164 110.641C123.164 110.641 122.42 121.72 122.258 122.149C122.095 122.577 125.353 132.157 125.353 132.157Z" fill="white"/>
<path opacity="0.1" d="M115.209 86.2L115.974 88.4298L111.949 92.4839C112.039 88.3139 112.14 84.3756 112.14 84.3756L110.744 75.8995C110.744 75.8995 112.14 75.8995 112.461 76.331C112.602 76.4655 112.758 76.584 112.925 76.6843L116.348 86.5591L115.209 86.2Z" fill="black"/>
<path d="M114.888 85.56L115.655 87.7898L111.63 91.8439C111.72 87.671 111.821 83.7356 111.821 83.7356L110.422 75.2595C110.422 75.2595 111.821 75.2595 112.14 75.691C112.282 75.8251 112.437 75.9444 112.603 76.0472L116.029 85.919L114.888 85.56Z" fill="white"/>
<path opacity="0.1" d="M114.888 63.4967C114.89 64.5402 114.726 65.5774 114.401 66.5692C114.347 66.5777 114.291 66.5752 114.237 66.5617C114.183 66.5483 114.133 66.5242 114.089 66.491C114.013 63.8847 112.731 61.4378 111.152 59.3557C110.709 58.727 110.172 58.1703 109.56 57.705C108.94 57.24 108.17 57.0222 107.399 57.094C106.531 57.2127 105.763 57.8035 104.886 57.8788C103.727 57.9743 102.691 57.1722 101.541 57.1317C101.074 57.1361 100.613 57.2402 100.189 57.4369C99.7647 57.6337 99.3876 57.9186 99.0825 58.2726C98.4786 58.9871 98.0298 59.8194 97.7649 60.7167C97.3096 62.0773 97.0616 63.4986 97.0294 64.933C97.0149 65.7438 96.9367 66.7603 96.1838 67.0556C96.2405 66.4593 96.1727 65.8577 95.9848 65.289C95.7969 64.7202 95.4929 64.1967 95.0921 63.7515L95.0747 63.7341C95.0747 63.6531 95.0747 63.5778 95.0747 63.4967C95.0522 62.1813 95.2919 60.8746 95.7797 59.6528C96.2675 58.431 96.9938 57.3185 97.916 56.3804C98.8383 55.4422 99.9382 54.697 101.151 54.1884C102.365 53.6797 103.667 53.4178 104.983 53.4178C106.298 53.4178 107.601 53.6797 108.814 54.1884C110.027 54.697 111.127 55.4422 112.049 56.3804C112.972 57.3185 113.698 58.431 114.186 59.6528C114.674 60.8746 114.913 62.1813 114.891 63.4967H114.888Z" fill="black"/>
<path d="M109.085 47.7637C107.58 47.0558 105.869 46.922 104.272 47.3872C103.47 47.6247 102.714 48.0098 101.9 48.2038C100.163 48.6237 98.1358 48.1691 96.6444 49.1855C95.8162 49.7647 95.3181 50.6798 94.8548 51.5688L93.6965 53.7754C93.0652 54.983 92.4281 56.2108 92.1646 57.54C91.9011 58.8691 92.0603 60.3576 92.903 61.4262C93.5169 62.2051 94.4233 62.6945 95.0894 63.4272C95.4884 63.8728 95.7911 64.3961 95.9784 64.9641C96.1658 65.5322 96.2338 66.1328 96.1782 66.7284C96.934 66.4388 97.0064 65.4195 97.0238 64.6087C97.0561 63.1743 97.304 61.7529 97.7593 60.3924C98.0236 59.4948 98.4724 58.6624 99.0769 57.9483C99.3823 57.5945 99.7594 57.3098 100.183 57.1131C100.607 56.9164 101.068 56.8121 101.535 56.8073C102.694 56.8479 103.733 57.6471 104.88 57.5515C105.749 57.4792 106.519 56.8855 107.394 56.7697C108.165 56.6967 108.935 56.9147 109.554 57.3807C110.166 57.8452 110.703 58.4021 111.144 59.0313C112.725 61.1134 114.008 63.5546 114.083 66.1666C114.41 66.407 114.882 66.0942 115.044 65.7236C115.207 65.3529 115.212 64.9185 115.418 64.5652C115.656 64.1569 116.11 63.9397 116.466 63.6328C117.37 62.8538 117.596 61.542 117.561 60.3518C117.526 59.1616 117.295 57.9541 117.52 56.7842C117.657 56.066 117.963 55.3942 118.131 54.6847C118.299 53.9752 118.32 53.1789 117.923 52.5678C117.344 51.6701 116.125 51.4935 115.062 51.4095C113.854 51.3053 112.774 51.4385 112.004 50.422C111.642 49.8916 111.235 49.3936 110.788 48.9336C110.634 48.783 109.085 47.8274 109.085 47.7637Z" fill="#512E4E"/>
<path opacity="0.1" d="M77.6101 108.831L74.584 103.236L73.6255 111.869C73.6255 111.869 74.1583 115.703 74.0512 116.29C73.944 116.878 76.2346 122.149 76.2346 122.149C76.2346 122.149 83.8014 135.626 86.8913 136.321L97.3307 128.861L94.5623 125.346C94.5623 125.346 93.6038 124.972 93.3634 125.346C93.3634 125.346 88.2233 116.502 87.6905 115.862C87.1577 115.222 87.2619 113.945 87.2619 113.945C87.2619 113.945 86.4627 113.093 86.7291 112.294C86.9955 111.495 85.1856 108.724 85.1856 108.724L86.8362 107.18L77.6101 108.831Z" fill="black"/>
<path d="M74.7431 102.599L73.9439 103.236L72.9854 111.869C72.9854 111.869 73.5182 115.703 73.411 116.29C73.3039 116.878 75.5974 122.149 75.5974 122.149C75.5974 122.149 83.1613 135.626 86.2511 136.321L96.6935 128.861L93.9222 125.346C93.9222 125.346 92.9636 124.972 92.7233 125.346C92.7233 125.346 87.5832 116.502 87.0504 115.862C86.5175 115.222 86.6247 113.945 86.6247 113.945C86.6247 113.945 85.8254 113.093 86.0918 112.294C86.3583 111.495 84.5455 108.724 84.5455 108.724L86.1961 107.18L74.7431 102.599Z" fill="white"/>
<path opacity="0.1" d="M124.34 136.416C124.919 137.12 124.554 140.279 124.554 140.279L122.956 142.926C122.956 142.926 123.051 144.635 123.057 146.937L120.37 147.777C120.127 147.853 119.869 147.869 119.619 147.825C119.368 147.781 119.132 147.678 118.929 147.524C118.726 147.371 118.563 147.17 118.454 146.941C118.344 146.711 118.291 146.459 118.299 146.204L118.762 131.259L125.032 133.657C124.499 134.027 125.084 134.937 125.084 134.937C125.084 134.937 123.755 135.713 124.34 136.416Z" fill="black"/>
<path d="M124.661 136.095C125.241 136.799 124.876 139.961 124.876 139.961L123.277 142.608C123.277 142.608 123.373 144.313 123.382 146.618L120.645 147.473C120.407 147.547 120.155 147.563 119.91 147.519C119.664 147.476 119.433 147.375 119.235 147.224C119.036 147.074 118.877 146.878 118.77 146.653C118.662 146.428 118.61 146.181 118.618 145.932L119.084 130.94L125.356 133.338C124.821 133.709 125.406 134.615 125.406 134.615C125.406 134.615 124.082 135.394 124.661 136.095Z" fill="white"/>
<path d="M126.738 128.971C126.738 128.971 126.312 131.69 125.246 131.85C124.181 132.009 123.703 136.248 122.64 136.098C121.577 135.947 122.281 132.157 122.319 131.421C122.356 130.686 121.16 127.639 122.055 126.947C122.95 126.255 125.782 126.947 125.782 126.947L126.738 128.971Z" fill="#CF6F80"/>
<path opacity="0.1" d="M129.005 108.032L131.015 103.977C131.015 103.977 131.814 107.067 131.814 108.718C131.814 110.368 132.932 110.531 132.932 110.531C132.932 110.531 134.157 111.979 133.511 113.033C132.865 114.087 132.605 116.71 132.605 116.71C132.605 116.71 132.816 121.717 131.858 122.409C130.899 123.101 130.699 124.755 130.699 124.755C130.699 124.755 128.939 127.897 128.994 128.644C129.049 129.391 126.544 134.45 126.544 134.45C126.544 134.45 127.769 128.163 120.631 125.447C120.631 125.447 120.576 123.313 121.108 122.728C121.641 122.143 122.472 121.876 121.951 118.92C121.43 115.963 121.8 112.43 121.8 111.721C121.8 111.011 123.399 106.587 123.399 106.587L129.005 108.032Z" fill="black"/>
<path d="M129.874 103.398L131.629 103.977C131.629 103.977 132.431 107.067 132.431 108.718C132.431 110.368 133.549 110.531 133.549 110.531C133.549 110.531 134.774 111.979 134.128 113.033C133.482 114.087 133.224 116.71 133.224 116.71C133.224 116.71 133.436 121.717 132.477 122.409C131.519 123.101 131.305 124.755 131.305 124.755C131.305 124.755 129.547 127.897 129.602 128.644C129.657 129.391 127.149 134.45 127.149 134.45C127.149 134.45 128.377 128.163 121.236 125.447C121.236 125.447 121.184 123.313 121.716 122.728C122.249 122.143 123.08 121.876 122.559 118.92C122.038 115.963 122.409 112.43 122.409 111.721C122.409 111.011 124.007 106.587 124.007 106.587L129.874 103.398Z" fill="white"/>
<path opacity="0.1" d="M91.1133 208.479C91.1133 208.479 93.9106 206.721 95.7466 207.998C97.5825 209.275 91.1133 208.479 91.1133 208.479Z" fill="black"/>
<path opacity="0.1" d="M112.849 203.043C112.849 203.043 115.325 202.725 117.404 204.963C119.483 207.202 112.849 203.043 112.849 203.043Z" fill="black"/>
<g opacity="0.1">
<path d="M116.472 62.9986C116.116 63.3056 115.658 63.5257 115.421 63.934C115.218 64.2844 115.212 64.7158 115.05 65.0923C114.888 65.4688 114.416 65.7757 114.089 65.5383C114.013 62.932 112.727 60.485 111.149 58.4C110.708 57.7708 110.172 57.214 109.559 56.7494C108.94 56.2834 108.168 56.0656 107.396 56.1384C106.528 56.2571 105.763 56.8479 104.886 56.9203C103.727 57.0187 102.688 56.2166 101.538 56.1761C101.071 56.1807 100.61 56.2852 100.187 56.4824C99.763 56.6797 99.3865 56.9653 99.0824 57.3199C98.4779 58.0329 98.0291 58.8644 97.7648 59.7611C97.3097 61.1217 97.0618 62.543 97.0292 63.9774C97.0119 64.7853 96.9366 65.7931 96.1895 66.0942C96.2068 66.3082 96.2068 66.5232 96.1895 66.7371C96.9424 66.4475 97.0177 65.4282 97.035 64.6174C97.0673 63.183 97.3153 61.7616 97.7706 60.4011C98.0349 59.5035 98.4836 58.6711 99.0882 57.957C99.393 57.6033 99.7696 57.3186 100.193 57.1219C100.616 56.9251 101.077 56.8209 101.544 56.816C102.702 56.8566 103.745 57.6558 104.891 57.5603C105.76 57.4879 106.53 56.8942 107.402 56.7784C108.174 56.7055 108.945 56.9234 109.565 57.3894C110.177 57.8539 110.714 58.4108 111.155 59.04C112.733 61.1221 114.019 63.5633 114.094 66.1753C114.422 66.4157 114.894 66.1029 115.056 65.7323C115.218 65.3616 115.224 64.9272 115.426 64.5739C115.664 64.1656 116.121 63.9484 116.478 63.6415C117.381 62.8625 117.607 61.5507 117.572 60.3605C117.572 60.3229 117.572 60.2852 117.572 60.2505C117.517 61.2814 117.242 62.3326 116.472 62.9986Z" fill="black"/>
<path d="M95.0949 62.793C94.4288 62.0604 93.5196 61.571 92.9085 60.7949C92.394 60.1079 92.1002 59.2809 92.0658 58.4232C91.9747 59.4949 92.274 60.5635 92.9085 61.432C93.5196 62.2109 94.4288 62.7003 95.0949 63.433C95.7344 64.1496 96.1183 65.058 96.1866 66.0161C96.2309 65.433 96.1571 64.847 95.9695 64.2932C95.7819 63.7394 95.4844 63.2291 95.0949 62.793Z" fill="black"/>
<path d="M118.137 54.0505C117.966 54.76 117.662 55.4347 117.523 56.15C117.441 56.628 117.41 57.1135 117.433 57.5979C117.443 57.322 117.473 57.0471 117.523 56.7755C117.662 56.0574 117.966 55.3855 118.137 54.676C118.236 54.2847 118.269 53.8793 118.232 53.4772C118.214 53.6704 118.182 53.862 118.137 54.0505Z" fill="black"/>
</g>
<path opacity="0.1" d="M38.9361 220.253C54.5199 220.253 67.153 218.224 67.153 215.721C67.153 213.218 54.5199 211.189 38.9361 211.189C23.3524 211.189 10.7192 213.218 10.7192 215.721C10.7192 218.224 23.3524 220.253 38.9361 220.253Z" fill="#5ABDDA"/>
<path d="M39.8455 128.905H38.0298V169.785H39.8455V128.905Z" fill="#535461"/>
<path d="M51.2552 169.66L51.1423 171.502L50.9801 174.108L50.9135 175.191L50.7542 177.798L50.6847 178.881L50.5226 181.487L48.6924 211.045C48.6129 212.316 48.0517 213.51 47.1232 214.383C46.1946 215.255 44.9685 215.741 43.6942 215.742H34.1786C32.9046 215.741 31.6788 215.255 30.7507 214.382C29.8226 213.51 29.2621 212.316 29.1833 211.045L27.3618 181.467L27.1996 178.86L27.133 177.777L26.9709 175.171L26.9043 174.088L26.7421 171.482L26.6263 169.64C26.6061 169.286 26.6587 168.931 26.7806 168.597C26.9025 168.264 27.0913 167.959 27.3354 167.701C27.5794 167.443 27.8736 167.238 28.1998 167.098C28.526 166.958 28.8775 166.886 29.2325 166.886H48.6953C49.049 166.889 49.3984 166.965 49.7218 167.108C50.0451 167.251 50.3358 167.459 50.5756 167.719C50.8155 167.979 50.9996 168.286 51.1164 168.62C51.2333 168.953 51.2806 169.308 51.2552 169.66Z" fill="#3F3D56"/>
<path d="M51.1423 171.502L50.9801 174.1H26.8926L26.7305 171.502H51.1423Z" fill="#9D9CB5"/>
<path d="M50.9132 175.183L50.754 177.783H27.1211L26.959 175.183H50.9132Z" fill="#9D9CB5"/>
<path d="M50.6847 178.869L50.5254 181.467H27.3502L27.188 178.869H50.6847Z" fill="#9D9CB5"/>
<path d="M23.9588 144.226C34.5315 151.877 38.9447 163.843 38.9447 163.843C38.9447 163.843 26.2031 163.406 15.6276 155.755C5.05201 148.104 0.647461 136.141 0.647461 136.141C0.647461 136.141 13.3833 136.576 23.9588 144.226Z" fill="#5ABDDA"/>
<path d="M0.63916 136.141C0.63916 136.141 13.8673 143.482 18.1097 149.561C22.352 155.639 38.9451 163.843 38.9451 163.843" stroke="#535461" stroke-width="2" stroke-miterlimit="10"/>
<path d="M30.7847 128.815C36.5387 132.976 38.9451 139.489 38.9451 139.489C38.9451 139.489 32.0096 139.251 26.2527 135.09C20.4959 130.929 18.0952 124.413 18.0952 124.413C18.0952 124.413 25.0278 124.651 30.7847 128.815Z" fill="#5ABDDA"/>
<path d="M18.0952 124.413C18.0952 124.413 25.2942 128.409 27.6022 131.716C29.9102 135.023 38.9451 139.489 38.9451 139.489" stroke="#535461" stroke-width="2" stroke-miterlimit="10"/>
<path d="M47.2994 139.159C40.6882 146.424 39.2896 155.92 39.2896 155.92C39.2896 155.92 48.6112 153.632 55.2166 146.364C61.8219 139.095 63.2264 129.603 63.2264 129.603C63.2264 129.603 53.9106 131.893 47.2994 139.159Z" fill="#5ABDDA"/>
<path d="M63.2322 129.605C63.2322 129.605 54.62 137.054 52.4308 142.185C50.2416 147.316 39.2896 155.92 39.2896 155.92" stroke="#535461" stroke-width="2" stroke-miterlimit="10"/>
<path d="M289.987 136.602C289.987 136.602 285.206 112.815 287.036 109.856C287.036 109.856 287.102 107.105 286.992 103.598C286.992 103.465 286.992 103.332 286.992 103.196C287.314 103.41 287.65 103.604 287.997 103.775C289.683 104.641 291.619 104.891 293.47 104.481L292.022 102.868C291.675 102.483 291.313 102.066 291.238 101.556C291.162 101.047 291.371 100.592 291.55 100.138C292.926 96.6626 292.998 92.2928 290.349 89.6402C288.11 87.4104 287.566 84.532 285.136 82.4962C283.361 81.0048 282.385 78.8185 281.464 76.7045C280.685 74.9178 279.9 73.1166 279.454 71.2227C279.107 69.743 278.968 68.2111 278.49 66.7661C278.012 65.3211 277.117 63.9166 275.719 63.2708C275.221 63.0421 274.668 62.9117 274.213 62.6077C273.616 62.2052 273.257 61.5507 272.826 60.9773C270.634 58.0815 263.293 59.7871 259.818 60.9629C258.873 61.2589 257.998 61.7436 257.246 62.3876L257.278 62.3355C257.304 62.292 257.336 62.2486 257.365 62.2052C256.985 62.5127 256.656 62.8794 256.392 63.2911C255.885 64.0932 255.674 65.0286 255.251 65.8973C254.741 66.9254 251.906 69.7951 253.126 70.9506C253.211 71.0281 253.309 71.0908 253.415 71.1359C253.873 71.3264 254.377 71.3767 254.863 71.2807L254.811 71.4052C254.395 72.4246 254.181 73.5155 254.183 74.6167C254.183 79.3745 258.106 83.2317 262.951 83.2317C263.862 83.2326 264.767 83.0929 265.636 82.8176C265.656 82.9277 265.673 83.0377 265.693 83.1478C265.693 83.1912 265.708 83.2346 265.714 83.2781L265.56 83.4924C265.553 83.4791 265.544 83.4666 265.534 83.4547L260.988 89.8081C260.293 90.2975 256.291 93.1934 256.065 95.3652C255.827 97.7427 255.59 100.526 255.59 100.526L255.558 101.122C255.359 101.288 255.127 101.409 254.877 101.477C254.627 101.544 254.365 101.557 254.11 101.513C252.691 101.281 252.691 106.726 252.691 106.726C252.691 106.726 251.747 107.594 251.099 106.841C250.45 106.088 248.736 108.64 248.736 108.64L237.992 109.103L237.746 109.117L237.167 107.325C237.104 107.136 236.97 106.979 236.793 106.889C236.615 106.798 236.41 106.781 236.22 106.841C236.175 106.856 236.131 106.875 236.089 106.896L236.049 106.92L235.974 106.972L235.936 107.006C235.915 107.025 235.896 107.046 235.878 107.067L235.843 107.108L235.826 107.125C235.759 107.218 235.715 107.324 235.697 107.437C235.679 107.55 235.687 107.665 235.722 107.774L236.22 109.312C234.146 109.729 232.027 110.904 233.755 114.142L224.993 112.523L227.828 114.903L242.463 117.924C242.269 118.271 242.397 118.775 243.002 119.485C245.608 122.545 250.357 123.377 252.268 123.591C252.773 124.72 253.404 125.788 254.148 126.776L253.983 129.826C253.983 129.826 249.144 153.067 248.258 154.246C248.705 153.739 249.114 153.2 249.483 152.633C248.078 157.408 246.115 163.944 245.599 164.923C244.771 166.487 244.004 172.814 244.948 173.219C245.237 173.344 246.066 173.283 247.247 173.193V173.718L247.195 193.58C247.195 193.58 247.432 205.763 246.781 206.924C246.129 208.085 245.956 210.521 245.956 210.521C245.956 210.521 243.349 215.325 241.285 217.256C241.271 217.271 241.255 217.285 241.238 217.297L241.175 216.845C241.175 216.845 238.693 219.978 233.202 219.802C233.202 219.802 229.898 221.95 234.798 222.066C239.698 222.182 245.956 221.892 245.956 221.892C245.956 221.892 250.325 215.232 253.986 216.101V221.148H255.106V216.02C255.626 215.678 256.071 215.233 256.414 214.714C256.757 214.195 256.991 213.612 257.102 212.999C257.197 212.368 257.127 211.723 256.898 211.127C256.668 210.532 256.287 210.006 255.793 209.603C255.57 209.402 255.392 209.157 255.269 208.884C255.146 208.611 255.081 208.315 255.077 208.016L255.037 208.05C255.037 207.949 255.011 207.845 254.999 207.738C254.678 205.131 254.275 199.754 255.697 195.775C257.646 190.319 258.237 182.721 256.818 178.197C256.36 176.751 255.984 175.281 255.691 173.793C255.657 173.605 255.625 173.425 255.596 173.257C256.566 173.388 257.526 173.582 258.471 173.836C261.758 174.743 268.948 174.911 275.088 174.861C275.102 175.029 275.119 175.206 275.14 175.383C275.249 176.61 275.478 177.825 275.823 179.008C276.593 181.325 276.947 191.538 276.947 191.538C276.947 191.538 277.94 199.936 277.398 203.353C277.109 205.253 276.819 207.161 276.654 209.078V209.116C276.654 209.116 275.027 213.749 273.837 216.266C273.808 216.33 273.776 216.393 273.747 216.454C273.429 216.483 273.117 216.552 272.817 216.66C272.817 216.66 271.222 219.845 269.632 220.372C268.042 220.899 268.569 222.634 272.169 221.997C275.768 221.36 281.203 220.838 281.203 220.838L281.438 217.589L282.544 216.205L282.255 219.445L283.433 219.214L283.277 215.273L285.087 213.008C285.087 213.008 287.273 211.062 284.024 207.234V207.318C283.989 207.263 283.957 207.205 283.92 207.15V207.132C283.381 206.298 282.953 204.743 283.737 201.984C285.156 196.997 285.982 192.471 285.982 192.471C285.982 192.471 289.15 180.346 285.342 174.609H285.51C285.119 173.802 284.844 172.944 284.69 172.061C284.671 171.957 284.653 171.85 284.638 171.74C287.456 171.577 290.221 171.068 292.477 169.967C292.468 169.956 291.11 141.183 289.987 136.602ZM254.214 116.534V116.592L253.635 116.621L254.214 116.534ZM252.228 116.809C252.133 116.83 252.044 116.872 251.967 116.933C251.718 117.286 251.562 117.695 251.513 118.124L250.609 117.921C250.609 117.921 249.975 117.785 249.063 117.631L248.631 117.197C249.819 117.098 251.052 116.954 252.228 116.809Z" fill="url(#paint1_linear_399_387)"/>
<path d="M282.121 215.313L281.777 219.416L282.932 219.185L282.759 214.734L282.121 215.313Z" fill="#1D2366"/>
<path d="M255.761 195.83C254.368 199.797 254.762 205.152 255.075 207.752C255.191 208.714 255.298 209.299 255.298 209.299C255.298 209.299 253.216 214.042 253.042 214.221C252.868 214.401 246.914 218.035 246.914 218.035L242.753 220.465C242.753 220.465 238.531 218.614 240.555 217.977C240.969 217.811 241.341 217.557 241.647 217.233C243.674 215.307 246.219 210.521 246.219 210.521C246.219 210.521 246.393 208.091 247.03 206.936C247.667 205.78 247.436 193.638 247.436 193.638L247.485 173.845V171.265L255.405 171.323C255.455 172.199 255.569 173.07 255.747 173.929C256.031 175.412 256.399 176.878 256.85 178.319C258.246 182.834 257.667 190.395 255.761 195.83Z" fill="#FFB0B1"/>
<path opacity="0.1" d="M255.298 209.299C255.298 209.299 253.216 214.042 253.042 214.221C252.868 214.401 246.914 218.035 246.914 218.035L242.753 220.465C242.753 220.465 238.531 218.614 240.555 217.977C240.969 217.811 241.341 217.557 241.647 217.233L241.826 218.499L243.213 218.441L255.086 207.758C255.191 208.714 255.298 209.299 255.298 209.299Z" fill="black"/>
<path d="M255.153 208.027L243.213 218.782L241.826 218.84L241.537 216.813C241.537 216.813 239.11 219.935 233.718 219.761C233.718 219.761 230.48 221.901 235.279 222.017C240.077 222.133 246.205 221.843 246.205 221.843C246.205 221.843 250.485 215.183 254.067 216.052V221.082H255.167V216.005C255.679 215.661 256.116 215.216 256.451 214.699C256.786 214.181 257.014 213.601 257.119 212.994C257.214 212.368 257.147 211.728 256.923 211.135C256.7 210.543 256.327 210.018 255.842 209.611C255.625 209.408 255.452 209.163 255.334 208.89C255.215 208.618 255.154 208.324 255.153 208.027Z" fill="#1D2366"/>
<path d="M283.222 202.016C282.452 204.767 282.871 206.316 283.399 207.147V207.164C284.074 208.19 284.545 209.338 284.783 210.544L284.829 210.804L279.396 218.724L276.449 219.883C276.449 219.883 271.708 218.264 272.574 217.801C272.791 217.688 273.13 217.085 273.518 216.254C274.676 213.749 276.275 209.128 276.275 209.128V209.09C276.443 207.182 276.709 205.279 277.005 203.385C277.534 199.977 276.561 191.611 276.561 191.611C276.561 191.611 276.214 181.438 275.461 179.124C275.121 177.948 274.895 176.741 274.786 175.522C274.63 174.074 274.595 172.881 274.595 172.881C274.595 172.881 277.717 168.537 283.439 173.228C283.897 173.602 284.299 174.039 284.635 174.525C288.588 180.149 285.405 192.537 285.405 192.537C285.405 192.537 284.609 197.043 283.222 202.016Z" fill="#FFB0B1"/>
<path opacity="0.1" d="M284.838 210.804L279.405 218.724L276.457 219.883C276.457 219.883 271.717 218.264 272.583 217.801C272.8 217.688 273.139 217.085 273.527 216.254C275.534 216.237 276.573 218.148 276.573 218.148L279.116 217.743C279.116 217.743 282.469 211.152 283.222 210.749C283.975 210.347 283.338 207.741 283.338 207.741V207.077C283.358 207.101 283.375 207.127 283.399 207.15V207.167C284.075 208.193 284.545 209.341 284.783 210.547L284.838 210.804Z" fill="black"/>
<path d="M276.747 218.319C276.747 218.319 275.299 215.661 272.525 216.642C272.525 216.642 270.964 219.828 269.403 220.343C267.842 220.859 268.363 222.596 271.89 221.962C275.418 221.328 280.734 220.804 280.734 220.804L280.966 217.563L284.551 212.996C284.551 212.996 286.688 211.059 283.509 207.245V207.909C283.509 207.909 284.146 210.515 283.393 210.917C282.64 211.32 279.298 217.914 279.298 217.914L276.747 218.319Z" fill="#1D2366"/>
<path opacity="0.1" d="M255.414 171.317C255.464 172.193 255.578 173.064 255.755 173.923C252.495 173.445 249.469 173.683 247.485 173.839V171.259L255.414 171.317Z" fill="black"/>
<path opacity="0.1" d="M284.957 175.246C284.957 175.246 280.323 175.472 274.798 175.519C274.642 174.071 274.607 172.878 274.607 172.878C274.607 172.878 277.729 168.534 283.451 173.225C283.908 173.599 284.311 174.036 284.647 174.523C284.736 174.769 284.84 175.011 284.957 175.246Z" fill="black"/>
<path d="M284.957 174.725C284.957 174.725 264.663 175.707 258.477 173.972C252.292 172.238 246.161 173.741 245.238 173.338C244.314 172.936 245.064 166.631 245.875 165.071C246.686 163.51 251.134 147.725 251.134 147.725L255.414 125.409L259.922 124.167L260.241 124.077L268.097 121.911L273.854 120.321C273.854 120.321 285.301 165.013 284.32 168.308C283.963 169.57 283.906 170.898 284.152 172.186C284.302 173.065 284.573 173.92 284.957 174.725Z" fill="#1D2366"/>
<path d="M240.494 110.148C240.494 110.148 236.44 114.492 239.51 116.913C242.579 119.334 244.597 117.145 244.597 117.145L240.494 110.148Z" fill="#C7DAF5"/>
<path opacity="0.1" d="M240.494 110.148C240.494 110.148 236.44 114.492 239.51 116.913C242.579 119.334 244.597 117.145 244.597 117.145L240.494 110.148Z" fill="black"/>
<path d="M273.249 81.5898C273.249 81.5898 272.774 82.0416 272.058 82.7076C271.039 83.6603 269.53 85.0532 268.193 86.2203C266.339 87.8332 264.81 89.0176 265.358 88.007C265.905 86.9963 265.801 85.2357 265.528 83.588C265.508 83.4779 265.491 83.3679 265.471 83.2607C265.245 82.0506 264.946 80.8553 264.576 79.6815C264.576 79.6815 267.57 75.8127 269.226 74.2866C269.843 73.7074 270.275 73.47 270.301 73.8725C270.33 74.414 270.735 75.61 271.239 76.8783C271.253 76.9189 271.268 76.9565 271.285 76.9971C271.621 77.8658 272.001 78.7577 272.334 79.528C272.843 80.7095 273.249 81.5898 273.249 81.5898Z" fill="#FFB0B1"/>
<path opacity="0.1" d="M271.285 76.997C271.004 78.5105 270.321 79.9206 269.309 81.08C268.296 82.2394 266.99 83.1055 265.528 83.5879C265.298 82.266 264.98 80.9609 264.576 79.6814C264.576 79.6814 270.214 72.3985 270.301 73.8724C270.321 74.4313 270.761 75.6707 271.285 76.997Z" fill="black"/>
<path opacity="0.1" d="M264.967 85.5339L265.697 84.5059C265.697 84.5059 266.18 87.4539 267.958 86.1536C269.736 84.8534 269.823 95.9386 269.823 95.9386L267.915 124.471L254.125 123.646L254.516 109.859L256.077 102.909L259.937 92.8053L262.233 89.4665L264.967 85.5339Z" fill="black"/>
<path d="M269.823 96.1153L268.085 121.914L267.903 124.648L260.215 124.187L259.925 124.17L254.133 123.823L254.524 110.033L256.085 103.083L259.945 92.9791L262.242 89.6402L264.975 85.6932L265.705 84.6681C265.705 84.6681 266.189 87.616 267.967 86.3158L268.004 86.2897C269.742 85.1893 269.823 96.1153 269.823 96.1153Z" fill="#1D2366"/>
<path d="M256.279 100.667C256.279 100.667 255.587 102.115 254.197 101.881C252.807 101.646 252.81 107.093 252.81 107.093C252.81 107.093 251.886 107.962 251.249 107.209C250.612 106.456 248.933 109.002 248.933 109.002L238.409 109.465C238.409 109.465 243.092 111.605 242.174 118.08C242.174 118.08 258.072 117.095 258.593 115.593C259.114 114.09 256.279 100.667 256.279 100.667Z" fill="white"/>
<path opacity="0.03" d="M256.279 100.667C256.279 100.667 255.587 102.115 254.197 101.881C252.807 101.646 252.81 107.093 252.81 107.093C252.81 107.093 251.886 107.962 251.249 107.209C250.612 106.456 248.933 109.002 248.933 109.002L238.409 109.465C238.409 109.465 243.092 111.605 242.174 118.08C242.174 118.08 258.072 117.095 258.593 115.593C259.114 114.09 256.279 100.667 256.279 100.667Z" fill="black"/>
<path d="M225.696 112.868L228.47 115.236L251.307 120.035L248.475 117.145L225.696 112.868Z" fill="white"/>
<path d="M265.01 86.4461C264.631 87.0253 263.545 89.9906 262.639 92.5795C261.883 94.7369 261.251 96.6336 261.251 96.6336C261.251 96.6336 259.778 106.23 259.025 107.965C258.272 109.7 258.68 116.464 258.68 116.464L255.874 133.17C255.874 133.17 254.603 141.785 252.639 146.931C250.702 151.996 248.545 154.371 248.478 154.446C249.347 153.27 254.081 130.121 254.081 130.121L255.645 100.925C255.645 100.925 255.874 98.151 256.106 95.7794C256.337 93.4077 261.029 90.1702 261.029 90.1702L265.552 83.7385C266.006 84.3466 265.702 85.4065 265.01 86.4461Z" fill="white"/>
<path d="M253.216 123.967C253.216 123.967 246.555 123.678 243.329 119.803C240.103 115.928 250.786 118.257 250.786 118.257L253.563 118.894L253.216 123.967Z" fill="#FFB0B1"/>
<path opacity="0.1" d="M284.32 168.311C283.963 169.573 283.906 170.9 284.152 172.188C276.886 172.704 269.114 170.741 269.114 170.741C267.666 172.073 263.852 174.036 263.852 174.036L261.773 148.263C260.444 144.788 259.922 126.582 259.922 126.582C259.922 126.582 260.041 125.629 260.212 124.202C260.212 124.167 260.212 124.129 260.226 124.095C260.745 120.107 261.773 112.621 262.277 111.611C262.972 110.221 260.14 106.523 260.14 106.523L261.428 95.5331L261.585 94.2069C264.301 92.9935 266.383 89.1189 266.383 89.1189L267.981 86.3186C269.719 85.2037 269.809 96.1297 269.809 96.1297L268.071 121.929L273.828 120.339C273.828 120.339 285.301 165.016 284.32 168.311Z" fill="black"/>
<path d="M291.776 170.092C283.856 174.024 269.461 170.382 269.461 170.382C268.013 171.714 264.199 173.677 264.199 173.677L262.117 147.904C260.791 144.429 260.27 126.223 260.27 126.223C260.27 126.223 261.943 112.639 262.638 111.252C262.841 110.846 262.743 110.244 262.502 109.595C261.321 106.508 260.886 103.185 261.234 99.8972L261.79 95.1741L261.943 93.8507C264.663 92.6345 266.745 88.7599 266.745 88.7599L268.193 86.2231L270.857 81.5493L272.119 79.3369L272.334 79.5309L273.97 81.0135C273.97 81.0135 274.665 81.5927 275.707 82.4614C277.975 84.3727 281.893 87.7376 283.914 89.7966C285.692 91.6093 286.254 98.6607 286.416 103.969C286.523 107.464 286.459 110.203 286.459 110.203C284.667 113.154 289.355 136.845 289.355 136.845C290.447 141.423 291.776 170.092 291.776 170.092Z" fill="white"/>
<path opacity="0.03" d="M276.573 88.7019C276.573 88.7019 271.138 99.0487 271.769 102.981C272.4 106.914 274.196 111.365 273.33 112.404C273.032 112.798 272.648 113.118 272.206 113.338C271.765 113.559 271.278 113.674 270.784 113.675C269.916 113.733 267.599 115.352 267.599 115.526C267.599 115.7 265.459 115.7 263.545 116.51C261.631 117.321 258.804 117.782 258.804 117.782C258.804 117.782 253.302 117.608 252.79 118.129C252.277 118.651 251.75 121.769 252.848 124.257C253.945 126.744 255.164 128.601 256.085 128.939C257.006 129.278 262.85 127.321 267.59 126.857C272.331 126.394 277.477 122.638 277.477 122.638C277.477 122.638 283.144 120.611 284.137 117.203C285.13 113.794 282.924 95.0611 282.924 95.0611C282.924 95.0611 281.256 86.3302 276.573 88.7019Z" fill="black"/>
<path opacity="0.03" d="M275.878 87.8332C275.878 87.8332 270.443 98.1829 271.08 102.112C271.717 106.042 273.506 110.496 272.638 111.538C272.341 111.933 271.957 112.253 271.516 112.473C271.075 112.694 270.589 112.809 270.095 112.81C269.226 112.868 266.91 114.486 266.91 114.66C266.91 114.834 264.77 114.834 262.856 115.642C260.942 116.45 258.115 116.913 258.115 116.913C258.115 116.913 252.613 116.739 252.103 117.261C251.594 117.782 251.061 120.903 252.161 123.388C253.262 125.873 254.478 127.732 255.399 128.071C256.32 128.409 262.164 126.452 266.904 125.991C271.644 125.531 276.79 121.769 276.79 121.769C276.79 121.769 282.455 119.742 283.436 116.337C284.418 112.931 282.223 94.1924 282.223 94.1924C282.223 94.1924 280.561 85.4644 275.878 87.8332Z" fill="black"/>
<path d="M276.402 88.1807C276.402 88.1807 270.967 98.5303 271.604 102.46C272.241 106.39 274.031 110.843 273.165 111.883C272.868 112.278 272.484 112.599 272.042 112.82C271.6 113.041 271.113 113.157 270.619 113.157C269.751 113.215 267.434 114.834 267.434 115.005C267.434 115.176 265.297 115.178 263.38 115.989C261.463 116.8 258.639 117.261 258.639 117.261C258.639 117.261 253.137 117.087 252.625 117.608C252.112 118.129 251.585 121.251 252.683 123.736C253.78 126.22 254.999 128.079 255.92 128.418C256.841 128.757 262.685 126.799 267.425 126.336C272.166 125.873 277.312 122.117 277.312 122.117C277.312 122.117 282.979 120.09 283.972 116.681C284.965 113.273 282.773 94.5399 282.773 94.5399C282.773 94.5399 281.082 85.8235 276.402 88.1807Z" fill="white"/>
<path opacity="0.1" d="M276.284 115.94C276.284 115.94 271.94 115.071 273.452 116.519C274.963 117.967 274.955 119.235 276.805 119.178C278.656 119.12 276.284 115.94 276.284 115.94Z" fill="black"/>
<path opacity="0.1" d="M283.625 147.093C283.625 147.093 281.661 148.423 285.417 151.486C289.173 154.55 283.625 147.093 283.625 147.093Z" fill="black"/>
<path opacity="0.1" d="M279.877 158.019C279.877 158.193 279.182 164.39 281.783 165.939C284.383 167.489 279.877 158.019 279.877 158.019Z" fill="black"/>
<path d="M238.589 109.451C236.492 109.523 231.963 110.163 234.312 114.544C236.388 118.422 239.878 115.83 241.841 113.864C241.362 112.031 240.198 110.451 238.589 109.451Z" fill="#FFB0B1"/>
<path opacity="0.1" d="M275.707 82.6381C273.483 84.1584 271.618 85.4412 271.254 85.7076C270.257 86.4461 268.358 90.7811 267.133 92.9935C266.157 94.7745 262.986 95.232 261.79 95.3449L261.944 94.0216C264.663 92.8053 266.745 88.9307 266.745 88.9307L272.119 79.5077L273.97 81.1902C273.97 81.1902 274.665 81.7693 275.707 82.6381Z" fill="black"/>
<path d="M275.707 82.4644C273.483 83.9847 271.618 85.2675 271.254 85.5368C270.257 86.2724 268.358 90.6074 267.133 92.8198C266.157 94.6008 262.986 95.0583 261.79 95.1712L261.944 93.8478C264.663 92.6316 266.745 88.757 266.745 88.757L272.119 79.334L273.97 81.0107C273.97 81.0107 274.665 81.584 275.707 82.4644Z" fill="#DCE7FF"/>
<path d="M271.428 75.0858C271.429 76.8241 270.902 78.5218 269.916 79.9536C268.752 81.6466 267.019 82.8663 265.033 83.3912C263.047 83.9161 260.938 83.7116 259.089 82.8148C257.241 81.9179 255.775 80.3881 254.958 78.503C254.141 76.6179 254.027 74.5023 254.636 72.5401C255.245 70.5779 256.538 68.8992 258.279 67.8085C260.02 66.7178 262.095 66.2873 264.126 66.5953C266.157 66.9032 268.011 67.9292 269.351 69.487C270.69 71.0448 271.427 73.0312 271.428 75.0858Z" fill="#FFB0B1"/>
<path opacity="0.1" d="M286.416 103.972C285.24 103.248 284.283 102.219 283.645 100.995C283.161 100.039 282.84 98.9358 282.015 98.2582C281.27 97.65 280.277 97.5024 279.35 97.2302C276.304 96.3296 273.75 93.5496 273.654 90.3757C273.608 88.8815 274.074 87.3901 273.863 85.9104C273.743 85.0729 273.41 84.2802 272.896 83.6082C272.64 83.2868 272.361 82.9857 272.059 82.7076C271.653 82.3253 271.228 81.9547 270.857 81.5493C270.623 81.2982 270.419 81.0213 270.249 80.724C270.111 80.4806 270 80.2234 269.916 79.9566C269.337 78.1843 269.864 76.082 269.227 74.2894L269.192 74.191C268.952 73.5539 268.462 72.9168 267.782 72.8676C267.101 72.8184 266.519 73.3831 265.87 73.635C264.512 74.162 263.047 73.2643 261.915 72.3492C260.782 71.4342 259.505 70.3888 258.066 70.5915C257.113 70.7276 256.361 71.3762 255.483 71.7122C255.285 71.7889 255.081 71.848 254.872 71.8888C255.615 70.037 256.979 68.5015 258.731 67.5463C260.482 66.591 262.512 66.2756 264.471 66.6543C266.43 67.0329 268.196 68.0819 269.465 69.6211C270.735 71.1603 271.428 73.0935 271.427 75.0887C271.428 75.6912 271.365 76.2921 271.239 76.8812C271.254 76.9217 271.268 76.9594 271.286 76.9999C271.622 77.8687 272.001 78.7606 272.334 79.5309L273.97 81.0135C273.97 81.0135 274.665 81.5927 275.708 82.4615C277.975 84.3727 281.893 87.7376 283.914 89.7966C285.692 91.6152 286.248 98.6636 286.416 103.972Z" fill="black"/>
<path d="M255.382 66.4215C255.796 65.5788 256.001 64.6348 256.497 63.8355C257.223 62.6772 258.492 61.9359 259.795 61.487C263.198 60.3142 270.388 58.6115 272.537 61.487C272.959 62.0662 273.31 62.7091 273.895 63.1087C274.341 63.4127 274.879 63.5431 275.369 63.7718C276.738 64.4147 277.613 65.8163 278.079 67.2468C278.545 68.6774 278.684 70.2121 279.026 71.6861C279.463 73.5771 280.231 75.3696 280.995 77.1505C281.896 79.2529 282.851 81.4335 284.589 82.919C286.961 84.9461 287.485 87.8158 289.686 90.0398C292.292 92.6808 292.208 97.039 290.864 100.5C290.688 100.954 290.488 101.429 290.557 101.913C290.627 102.396 290.986 102.836 291.325 103.222L292.749 104.829C289.379 105.643 285.565 103.882 283.995 100.792C283.512 99.8364 283.19 98.736 282.362 98.0555C281.621 97.4473 280.625 97.3026 279.701 97.0304C276.654 96.1269 274.1 93.344 274.005 90.1702C273.958 88.6788 274.425 87.1874 274.213 85.7106C274.096 84.8675 273.761 84.0693 273.243 83.3939C272.447 82.3543 271.245 81.6564 270.596 80.4981C269.499 78.5608 270.333 76.0443 269.542 73.9651C269.299 73.328 268.813 72.691 268.132 72.6417C267.452 72.5925 266.869 73.1572 266.218 73.4091C264.863 73.9362 263.397 73.0414 262.265 72.1234C261.133 71.2054 259.856 70.1629 258.414 70.3685C257.461 70.5017 256.711 71.1504 255.833 71.4892C255.185 71.7382 253.87 71.9612 253.303 71.4139C252.104 70.3106 254.881 67.4524 255.382 66.4215Z" fill="#591D4B"/>
<path opacity="0.1" d="M284.8 99.8364C284.314 98.8808 283.995 97.7803 283.167 97.1027C282.426 96.4946 281.43 96.3469 280.503 96.0747C277.459 95.1741 274.905 92.3912 274.807 89.2174C274.76 87.726 275.227 86.2318 275.018 84.7549C274.897 83.9172 274.563 83.1246 274.048 82.4527C273.249 81.4131 272.047 80.7152 271.401 79.5569C270.304 77.6225 271.138 75.106 270.344 73.0239C270.104 72.3898 269.615 71.7527 268.937 71.7006C268.259 71.6484 267.672 72.2189 267.023 72.4708C265.668 72.9979 264.199 72.1002 263.07 71.1851C261.941 70.27 260.658 69.2246 259.219 69.4273C258.266 69.5634 257.513 70.2121 256.638 70.548C255.99 70.7971 254.672 71.0229 254.105 70.4756C252.912 69.3173 255.689 66.4649 256.187 65.4398C256.601 64.5942 256.806 63.6531 257.304 62.8538C257.331 62.8104 257.359 62.7669 257.388 62.7235C257.016 63.0322 256.694 63.3977 256.436 63.8065C255.941 64.6058 255.735 65.544 255.321 66.3925C254.82 67.4176 252.043 70.2787 253.239 71.4284C253.818 71.9786 255.121 71.7527 255.77 71.5036C256.638 71.1648 257.397 70.5162 258.35 70.383C259.798 70.1774 261.072 71.2227 262.201 72.1378C263.331 73.0529 264.808 73.9506 266.157 73.4236C266.806 73.1716 267.373 72.6041 268.068 72.6562C268.763 72.7083 269.227 73.3425 269.479 73.9796C270.269 76.0588 269.435 78.5752 270.533 80.5125C271.181 81.6506 272.383 82.363 273.179 83.4084C273.698 84.0837 274.032 84.8819 274.149 85.725C274.361 87.2019 273.895 88.6932 273.941 90.1846C274.037 93.37 276.591 96.1413 279.637 97.0448C280.555 97.317 281.557 97.4618 282.298 98.0699C283.129 98.7504 283.457 99.8508 283.932 100.806C285.501 103.896 289.315 105.657 292.686 104.843L292.014 104.085C289.092 104.128 286.135 102.466 284.8 99.8364Z" fill="black"/>
<path opacity="0.1" d="M264.837 86.6199C264.457 87.199 263.371 90.1643 262.465 92.7532C261.616 92.4231 260.846 90.3178 260.846 90.3178L265.369 83.8833C265.833 84.5204 265.529 85.5774 264.837 86.6199Z" fill="black"/>
<path d="M265.01 86.4461C264.631 87.0252 263.545 89.9905 262.639 92.5794C261.79 92.2522 261.02 90.144 261.02 90.144L265.543 83.7124C266.007 84.3466 265.703 85.4065 265.01 86.4461Z" fill="#DCE7FF"/>
<path d="M238.711 116.03L236.203 108.121C236.173 108.029 236.162 107.931 236.17 107.834C236.178 107.737 236.205 107.643 236.25 107.557C236.295 107.47 236.356 107.394 236.43 107.331C236.505 107.268 236.591 107.221 236.683 107.192C236.87 107.134 237.072 107.151 237.246 107.241C237.419 107.331 237.55 107.486 237.61 107.672L240.118 115.572L239.869 117.226L238.711 116.03Z" fill="#BE8B87"/>
<path opacity="0.1" d="M236.44 107.426C236.627 107.367 236.83 107.385 237.004 107.475C237.178 107.565 237.31 107.72 237.37 107.907L239.877 115.807L239.689 117.046L239.872 117.237L240.121 115.584L237.598 107.684C237.539 107.498 237.408 107.343 237.234 107.253C237.06 107.163 236.858 107.145 236.672 107.203C236.515 107.254 236.379 107.356 236.287 107.493C236.336 107.467 236.387 107.444 236.44 107.426Z" fill="white"/>
<path d="M238.71 116.03L240.118 115.584L239.912 116.939L239.869 117.237L239.458 116.809L238.71 116.03Z" fill="#EFC8C4"/>
<path d="M239.458 116.809C239.482 116.778 239.513 116.752 239.547 116.733C239.568 116.721 239.591 116.714 239.615 116.714C239.639 116.714 239.663 116.721 239.683 116.733C239.703 116.757 239.72 116.784 239.733 116.812C239.752 116.844 239.778 116.871 239.809 116.891C239.84 116.912 239.875 116.925 239.912 116.93L239.869 117.22L239.458 116.809Z" fill="#727A9C"/>
<path d="M236.188 110.93C236.188 110.93 241.218 110.901 240.034 113.041C238.849 115.181 236.999 115.439 236.999 115.439L236.188 110.93Z" fill="#FFB0B1"/>
<path d="M204.904 14.8903H204.687C196.046 14.8903 188.404 19.4628 184.008 26.2101C179.612 19.4628 171.97 14.8903 163.329 14.8903H163.112C156.627 14.9521 150.428 17.5707 145.863 22.177C141.298 26.7833 138.735 33.0051 138.732 39.4903C138.732 47.5436 142.259 58.9705 149.137 68.3733C162.24 86.2897 184.008 101.965 184.008 101.965C184.008 101.965 205.776 86.2926 218.877 68.3733C225.757 58.9705 229.281 47.5436 229.281 39.4903C229.278 33.0056 226.716 26.7842 222.151 22.178C217.587 17.5718 211.389 14.9529 204.904 14.8903ZM201.797 69.7517C200.813 69.7479 199.853 69.4467 199.043 68.8875C198.233 68.3283 197.612 67.5374 197.259 66.6184H192.093C191.753 66.6163 191.422 66.508 191.146 66.3086C190.871 66.1093 190.664 65.8288 190.556 65.5064L188.969 60.7254L183.947 78.2712C183.85 78.609 183.645 78.9059 183.364 79.1174C183.083 79.3288 182.741 79.4435 182.389 79.444H182.288C181.921 79.4263 181.571 79.2832 181.297 79.0386C181.023 78.794 180.841 78.4628 180.782 78.1003L175.607 46.976L171.825 65.3935C171.739 65.7433 171.537 66.0541 171.253 66.2761C170.969 66.4981 170.619 66.6186 170.259 66.6184H162.982C162.763 66.6276 162.546 66.5926 162.341 66.5155C162.137 66.4384 161.951 66.3208 161.793 66.1697C161.635 66.0186 161.51 65.8372 161.424 65.6363C161.338 65.4355 161.294 65.2194 161.294 65.0011C161.294 64.7827 161.338 64.5667 161.424 64.3658C161.51 64.165 161.635 63.9836 161.793 63.8325C161.951 63.6814 162.137 63.5638 162.341 63.4866C162.546 63.4095 162.763 63.3745 162.982 63.3838H168.985L174.342 38.6216C174.43 38.2555 174.642 37.9313 174.943 37.7044C175.243 37.4776 175.613 37.3622 175.989 37.3779C176.366 37.3936 176.725 37.5395 177.005 37.7907C177.286 38.0418 177.47 38.3826 177.527 38.7548L182.812 70.5046L187.312 54.8063C187.406 54.4757 187.604 54.1843 187.877 53.9755C188.15 53.7667 188.483 53.6519 188.827 53.648H188.859C189.199 53.6481 189.531 53.7557 189.806 53.9554C190.082 54.155 190.287 54.4366 190.393 54.76L193.263 63.3925H197.196C197.475 62.543 197.984 61.7873 198.666 61.2088C199.348 60.6303 200.177 60.2514 201.06 60.1141C201.944 59.9767 202.848 60.0862 203.674 60.4304C204.499 60.7746 205.213 61.3401 205.738 62.0646C206.262 62.7891 206.576 63.6443 206.645 64.536C206.714 65.4276 206.535 66.3209 206.128 67.1174C205.721 67.9138 205.102 68.5823 204.34 69.0493C203.577 69.5162 202.7 69.7633 201.806 69.7633L201.797 69.7517Z" fill="#5ABDDA"/>
<defs>
<linearGradient id="paint0_linear_399_387" x1="103.687" y1="224.389" x2="103.687" y2="46.197" gradientUnits="userSpaceOnUse">
<stop stop-color="#808080" stop-opacity="0.25"/>
<stop offset="0.54" stop-color="#808080" stop-opacity="0.12"/>
<stop offset="1" stop-color="#808080" stop-opacity="0.1"/>
</linearGradient>
<linearGradient id="paint1_linear_399_387" x1="259.221" y1="222.136" x2="259.221" y2="59.3904" gradientUnits="userSpaceOnUse">
<stop stop-color="#808080" stop-opacity="0.25"/>
<stop offset="0.54" stop-color="#808080" stop-opacity="0.12"/>
<stop offset="1" stop-color="#808080" stop-opacity="0.1"/>
</linearGradient>
</defs>
</svg>
